<?xml version="1.0" encoding="utf-8" standalone="no"?>
<!DOCTYPE svg PUBLIC "-//W3C//DTD SVG 1.1//EN"
  "http://www.w3.org/Graphics/SVG/1.1/DTD/svg11.dtd">
<svg xmlns:xlink="http://www.w3.org/1999/xlink" width="460.8pt" height="345.6pt" viewBox="0 0 460.8 345.6" xmlns="http://www.w3.org/2000/svg" version="1.1">
 <metadata>
  <rdf:RDF xmlns:dc="http://purl.org/dc/elements/1.1/" xmlns:cc="http://creativecommons.org/ns#" xmlns:rdf="http://www.w3.org/1999/02/22-rdf-syntax-ns#">
   <cc:Work>
    <dc:type rdf:resource="http://purl.org/dc/dcmitype/StillImage"/>
    <dc:date>2024-06-11T11:56:01.652037</dc:date>
    <dc:format>image/svg+xml</dc:format>
    <dc:creator>
     <cc:Agent>
      <dc:title>Matplotlib v3.9.0, https://matplotlib.org/</dc:title>
     </cc:Agent>
    </dc:creator>
   </cc:Work>
  </rdf:RDF>
 </metadata>
 <defs>
  <style type="text/css">*{stroke-linejoin: round; stroke-linecap: butt}</style>
 </defs>
 <g id="figure_1">
  <g id="patch_1">
   <path d="M 0 345.6 
L 460.8 345.6 
L 460.8 0 
L 0 0 
z
" style="fill: #ffffff"/>
  </g>
  <g id="axes_1">
   <g id="patch_2">
    <path d="M 57.6 307.584 
L 414.72 307.584 
L 414.72 41.472 
L 57.6 41.472 
z
" style="fill: #ffffff"/>
   </g>
   <g id="PolyCollection_1">
    <path d="M -578.0736 284.802816 
L -578.0736 294.44549 
L -563.7888 294.274911 
L -549.504 294.267233 
L -535.2192 294.691153 
L -520.9344 294.322101 
L -506.6496 294.978046 
L -492.3648 295.210071 
L -478.08 295.363836 
L -463.7952 295.129361 
L -449.5104 294.793218 
L -435.2256 295.341355 
L -420.9408 295.097281 
L -406.656 294.967212 
L -392.3712 294.984736 
L -378.0864 294.589082 
L -363.8016 294.924036 
L -349.5168 294.072361 
L -335.232 294.500274 
L -320.9472 295.03103 
L -306.6624 294.92843 
L -292.3776 295.286528 
L -278.0928 294.839442 
L -263.808 295.071589 
L -249.5232 295.285292 
L -235.2384 295.139839 
L -220.9536 295.254083 
L -206.6688 294.921632 
L -192.384 294.486603 
L -178.0992 294.879757 
L -163.8144 294.48708 
L -149.5296 295.083632 
L -135.2448 295.157356 
L -120.96 295.127742 
L -106.6752 294.658673 
L -92.3904 294.503381 
L -78.1056 294.632744 
L -63.8208 293.897298 
L -49.536 294.068356 
L -35.2512 294.984018 
L -20.9664 295.034272 
L -6.6816 294.89805 
L 7.6032 293.747492 
L 21.888 294.227225 
L 36.1728 294.785584 
L 50.4576 295.10578 
L 64.7424 294.674817 
L 79.0272 295.167944 
L 93.312 294.069382 
L 107.5968 291.266551 
L 121.8816 291.956059 
L 136.1664 291.437541 
L 150.4512 244.212262 
L 164.736 169.452003 
L 179.0208 208.864657 
L 193.3056 233.968837 
L 207.5904 238.186564 
L 221.8752 257.092904 
L 236.16 262.517959 
L 250.4448 260.981681 
L 264.7296 271.993841 
L 279.0144 280.865373 
L 293.2992 283.806641 
L 307.584 288.712647 
L 321.8688 290.984992 
L 336.1536 292.789833 
L 350.4384 293.806245 
L 364.7232 293.593528 
L 379.008 294.188617 
L 393.2928 293.915572 
L 407.5776 294.194239 
L 421.8624 294.505986 
L 436.1472 294.5193 
L 450.432 294.731632 
L 464.7168 294.939674 
L 479.0016 294.95519 
L 493.2864 294.986995 
L 507.5712 295.076629 
L 521.856 294.840399 
L 536.1408 294.303158 
L 550.4256 294.752987 
L 564.7104 294.013078 
L 578.9952 294.458763 
L 593.28 294.474841 
L 607.5648 294.577047 
L 621.8496 295.274325 
L 636.1344 294.942245 
L 650.4192 295.009993 
L 664.704 295.277751 
L 678.9888 294.814599 
L 693.2736 295.130447 
L 707.5584 295.488 
L 721.8432 295.046446 
L 736.128 295.249112 
L 750.4128 294.805607 
L 764.6976 295.052872 
L 778.9824 295.377524 
L 793.2672 295.135817 
L 807.552 294.879668 
L 821.8368 295.090368 
L 836.1216 295.279564 
L 836.1216 288.187417 
L 836.1216 288.187417 
L 821.8368 290.425554 
L 807.552 292.433637 
L 793.2672 294.226352 
L 778.9824 294.120129 
L 764.6976 292.805715 
L 750.4128 291.792234 
L 736.128 290.4318 
L 721.8432 290.762862 
L 707.5584 290.642877 
L 693.2736 288.586544 
L 678.9888 290.009056 
L 664.704 283.119415 
L 650.4192 290.92289 
L 636.1344 291.932432 
L 621.8496 289.286624 
L 607.5648 288.804137 
L 593.28 287.44965 
L 578.9952 287.514128 
L 564.7104 288.768814 
L 550.4256 274.379207 
L 536.1408 270.330385 
L 521.856 293.858325 
L 507.5712 293.50019 
L 493.2864 293.015253 
L 479.0016 293.719388 
L 464.7168 293.667158 
L 450.432 292.791433 
L 436.1472 292.805249 
L 421.8624 293.10072 
L 407.5776 291.997556 
L 393.2928 287.855984 
L 379.008 289.335613 
L 364.7232 284.165065 
L 350.4384 286.477567 
L 336.1536 283.688544 
L 321.8688 272.22388 
L 307.584 277.414266 
L 293.2992 265.774697 
L 279.0144 260.828276 
L 264.7296 253.207515 
L 250.4448 231.421456 
L 236.16 227.89031 
L 221.8752 211.110001 
L 207.5904 176.873159 
L 193.3056 162.930509 
L 179.0208 113.429132 
L 164.736 53.568 
L 150.4512 75.822989 
L 136.1664 163.690005 
L 121.8816 256.38048 
L 107.5968 268.059144 
L 93.312 284.043174 
L 79.0272 283.188362 
L 64.7424 285.420444 
L 50.4576 281.844982 
L 36.1728 285.253194 
L 21.888 284.060748 
L 7.6032 281.634052 
L -6.6816 286.621234 
L -20.9664 279.464046 
L -35.2512 284.623209 
L -49.536 283.60995 
L -63.8208 282.519217 
L -78.1056 280.081467 
L -92.3904 284.14296 
L -106.6752 273.948194 
L -120.96 285.438721 
L -135.2448 284.645342 
L -149.5296 285.255424 
L -163.8144 282.165551 
L -178.0992 287.922614 
L -192.384 290.050121 
L -206.6688 291.329107 
L -220.9536 290.233106 
L -235.2384 289.486218 
L -249.5232 290.69734 
L -263.808 287.822773 
L -278.0928 288.095109 
L -292.3776 288.357509 
L -306.6624 287.597837 
L -320.9472 285.709947 
L -335.232 283.983752 
L -349.5168 263.707665 
L -363.8016 283.603702 
L -378.0864 273.942717 
L -392.3712 261.068685 
L -406.656 288.818973 
L -420.9408 280.86802 
L -435.2256 289.766061 
L -449.5104 286.484444 
L -463.7952 288.964911 
L -478.08 287.170314 
L -492.3648 286.894366 
L -506.6496 289.054336 
L -520.9344 280.966273 
L -535.2192 285.962253 
L -549.504 282.580963 
L -563.7888 283.49955 
L -578.0736 284.802816 
z
" clip-path="url(#pd75c8aebb9)" style="fill: #1f77b4; fill-opacity: 0.2; stroke: #1f77b4; stroke-opacity: 0.2"/>
   </g>
   <g id="PolyCollection_2">
    <path d="M -578.0736 287.910037 
L -578.0736 293.750938 
L -563.7888 293.112718 
L -549.504 293.836905 
L -535.2192 293.933909 
L -520.9344 294.462781 
L -506.6496 294.239298 
L -492.3648 294.315956 
L -478.08 294.146862 
L -463.7952 294.075252 
L -449.5104 294.432215 
L -435.2256 294.393945 
L -420.9408 294.152019 
L -406.656 293.92531 
L -392.3712 294.588755 
L -378.0864 294.433874 
L -363.8016 293.968605 
L -349.5168 294.416772 
L -335.232 294.292358 
L -320.9472 293.931017 
L -306.6624 292.456014 
L -292.3776 292.232703 
L -278.0928 292.352454 
L -263.808 291.776639 
L -249.5232 291.860196 
L -235.2384 291.646745 
L -220.9536 292.135165 
L -206.6688 292.661978 
L -192.384 293.612594 
L -178.0992 292.89499 
L -163.8144 292.635567 
L -149.5296 293.288141 
L -135.2448 292.763134 
L -120.96 290.568313 
L -106.6752 292.269382 
L -92.3904 293.173373 
L -78.1056 293.413508 
L -63.8208 293.1798 
L -49.536 293.485404 
L -35.2512 293.729911 
L -20.9664 293.464449 
L -6.6816 293.79288 
L 7.6032 293.780941 
L 21.888 294.244831 
L 36.1728 293.762723 
L 50.4576 294.699822 
L 64.7424 294.700526 
L 79.0272 294.726677 
L 93.312 294.342191 
L 107.5968 294.086228 
L 121.8816 293.085169 
L 136.1664 290.233322 
L 150.4512 251.126203 
L 164.736 188.507708 
L 179.0208 188.987099 
L 193.3056 223.406959 
L 207.5904 220.137507 
L 221.8752 233.664756 
L 236.16 249.425343 
L 250.4448 250.989777 
L 264.7296 258.415691 
L 279.0144 265.953877 
L 293.2992 275.053289 
L 307.584 279.017945 
L 321.8688 282.316617 
L 336.1536 285.456278 
L 350.4384 288.578495 
L 364.7232 288.848217 
L 379.008 289.955788 
L 393.2928 291.483971 
L 407.5776 292.415621 
L 421.8624 293.120896 
L 436.1472 292.93982 
L 450.432 293.630339 
L 464.7168 293.735226 
L 479.0016 293.72969 
L 493.2864 293.819018 
L 507.5712 294.308775 
L 521.856 294.246722 
L 536.1408 294.677291 
L 550.4256 294.278522 
L 564.7104 293.981739 
L 578.9952 294.342688 
L 593.28 294.314847 
L 607.5648 294.332094 
L 621.8496 294.42604 
L 636.1344 294.642907 
L 650.4192 294.576113 
L 664.704 294.323873 
L 678.9888 294.387273 
L 693.2736 293.658659 
L 707.5584 293.736477 
L 721.8432 293.98601 
L 736.128 294.452026 
L 750.4128 293.981049 
L 764.6976 294.01559 
L 778.9824 293.720737 
L 793.2672 293.206336 
L 807.552 292.238573 
L 821.8368 292.483518 
L 836.1216 290.992907 
L 836.1216 271.08104 
L 836.1216 271.08104 
L 821.8368 272.352555 
L 807.552 279.901026 
L 793.2672 285.594689 
L 778.9824 288.74403 
L 764.6976 284.547239 
L 750.4128 287.443837 
L 736.128 290.731061 
L 721.8432 288.928765 
L 707.5584 289.095899 
L 693.2736 287.009603 
L 678.9888 291.246379 
L 664.704 291.206592 
L 650.4192 291.894425 
L 636.1344 292.837063 
L 621.8496 288.137959 
L 607.5648 288.751636 
L 593.28 292.727569 
L 578.9952 287.449178 
L 564.7104 283.338539 
L 550.4256 292.057855 
L 536.1408 293.539934 
L 521.856 292.90827 
L 507.5712 292.16238 
L 493.2864 290.339937 
L 479.0016 289.808655 
L 464.7168 291.672019 
L 450.432 292.291683 
L 436.1472 289.354329 
L 421.8624 288.103527 
L 407.5776 287.498504 
L 393.2928 280.396535 
L 379.008 283.17465 
L 364.7232 275.525759 
L 350.4384 283.277514 
L 336.1536 276.147559 
L 321.8688 268.912085 
L 307.584 267.367335 
L 293.2992 257.969239 
L 279.0144 246.696367 
L 264.7296 228.376962 
L 250.4448 231.425225 
L 236.16 231.170852 
L 221.8752 207.733026 
L 207.5904 187.542254 
L 193.3056 199.635874 
L 179.0208 135.706874 
L 164.736 127.291316 
L 150.4512 212.483428 
L 136.1664 275.911524 
L 121.8816 282.910409 
L 107.5968 283.572043 
L 93.312 279.960575 
L 79.0272 273.503061 
L 64.7424 286.564863 
L 50.4576 272.928152 
L 36.1728 286.197233 
L 21.888 283.833205 
L 7.6032 281.502705 
L -6.6816 276.834637 
L -20.9664 284.570476 
L -35.2512 281.422182 
L -49.536 280.357354 
L -63.8208 281.467535 
L -78.1056 288.387213 
L -92.3904 285.463232 
L -106.6752 276.272536 
L -120.96 273.812667 
L -135.2448 284.322975 
L -149.5296 288.341807 
L -163.8144 282.318472 
L -178.0992 285.572585 
L -192.384 288.960093 
L -206.6688 284.77842 
L -220.9536 284.253062 
L -235.2384 280.202465 
L -249.5232 276.181803 
L -263.808 278.364786 
L -278.0928 282.3152 
L -292.3776 279.918385 
L -306.6624 278.684395 
L -320.9472 281.588715 
L -335.232 291.453463 
L -349.5168 289.366486 
L -363.8016 289.330431 
L -378.0864 285.989678 
L -392.3712 283.230357 
L -406.656 286.242711 
L -420.9408 290.662818 
L -435.2256 291.150851 
L -449.5104 292.5606 
L -463.7952 284.572474 
L -478.08 281.989425 
L -492.3648 291.967733 
L -506.6496 291.094985 
L -520.9344 291.969654 
L -535.2192 290.987227 
L -549.504 289.529185 
L -563.7888 285.505595 
L -578.0736 287.910037 
z
" clip-path="url(#pd75c8aebb9)" style="fill: #ff7f0e; fill-opacity: 0.2; stroke: #ff7f0e; stroke-opacity: 0.2"/>
   </g>
   <g id="matplotlib.axis_1">
    <g id="xtick_1">
     <g id="line2d_1">
      <defs>
       <path id="m5b6ebc3d59" d="M 0 0 
L 0 3.5 
" style="stroke: #000000; stroke-width: 0.8"/>
      </defs>
      <g>
       <use xlink:href="#m5b6ebc3d59" x="57.6" y="307.584" style="stroke: #000000; stroke-width: 0.8"/>
      </g>
     </g>
     <g id="text_1">
      <!-- −50 -->
      <g transform="translate(47.047656 322.182437) scale(0.1 -0.1)">
       <defs>
        <path id="DejaVuSans-2212" d="M 678 2272 
L 4684 2272 
L 4684 1741 
L 678 1741 
L 678 2272 
z
" transform="scale(0.015625)"/>
        <path id="DejaVuSans-35" d="M 691 4666 
L 3169 4666 
L 3169 4134 
L 1269 4134 
L 1269 2991 
Q 1406 3038 1543 3061 
Q 1681 3084 1819 3084 
Q 2600 3084 3056 2656 
Q 3513 2228 3513 1497 
Q 3513 744 3044 326 
Q 2575 -91 1722 -91 
Q 1428 -91 1123 -41 
Q 819 9 494 109 
L 494 744 
Q 775 591 1075 516 
Q 1375 441 1709 441 
Q 2250 441 2565 725 
Q 2881 1009 2881 1497 
Q 2881 1984 2565 2268 
Q 2250 2553 1709 2553 
Q 1456 2553 1204 2497 
Q 953 2441 691 2322 
L 691 4666 
z
" transform="scale(0.015625)"/>
        <path id="DejaVuSans-30" d="M 2034 4250 
Q 1547 4250 1301 3770 
Q 1056 3291 1056 2328 
Q 1056 1369 1301 889 
Q 1547 409 2034 409 
Q 2525 409 2770 889 
Q 3016 1369 3016 2328 
Q 3016 3291 2770 3770 
Q 2525 4250 2034 4250 
z
M 2034 4750 
Q 2819 4750 3233 4129 
Q 3647 3509 3647 2328 
Q 3647 1150 3233 529 
Q 2819 -91 2034 -91 
Q 1250 -91 836 529 
Q 422 1150 422 2328 
Q 422 3509 836 4129 
Q 1250 4750 2034 4750 
z
" transform="scale(0.015625)"/>
       </defs>
       <use xlink:href="#DejaVuSans-2212"/>
       <use xlink:href="#DejaVuSans-35" x="83.789062"/>
       <use xlink:href="#DejaVuSans-30" x="147.412109"/>
      </g>
     </g>
    </g>
    <g id="xtick_2">
     <g id="line2d_2">
      <g>
       <use xlink:href="#m5b6ebc3d59" x="129.024" y="307.584" style="stroke: #000000; stroke-width: 0.8"/>
      </g>
     </g>
     <g id="text_2">
      <!-- 0 -->
      <g transform="translate(125.84275 322.182437) scale(0.1 -0.1)">
       <use xlink:href="#DejaVuSans-30"/>
      </g>
     </g>
    </g>
    <g id="xtick_3">
     <g id="line2d_3">
      <g>
       <use xlink:href="#m5b6ebc3d59" x="200.448" y="307.584" style="stroke: #000000; stroke-width: 0.8"/>
      </g>
     </g>
     <g id="text_3">
      <!-- 50 -->
      <g transform="translate(194.0855 322.182437) scale(0.1 -0.1)">
       <use xlink:href="#DejaVuSans-35"/>
       <use xlink:href="#DejaVuSans-30" x="63.623047"/>
      </g>
     </g>
    </g>
    <g id="xtick_4">
     <g id="line2d_4">
      <g>
       <use xlink:href="#m5b6ebc3d59" x="271.872" y="307.584" style="stroke: #000000; stroke-width: 0.8"/>
      </g>
     </g>
     <g id="text_4">
      <!-- 100 -->
      <g transform="translate(262.32825 322.182437) scale(0.1 -0.1)">
       <defs>
        <path id="DejaVuSans-31" d="M 794 531 
L 1825 531 
L 1825 4091 
L 703 3866 
L 703 4441 
L 1819 4666 
L 2450 4666 
L 2450 531 
L 3481 531 
L 3481 0 
L 794 0 
L 794 531 
z
" transform="scale(0.015625)"/>
       </defs>
       <use xlink:href="#DejaVuSans-31"/>
       <use xlink:href="#DejaVuSans-30" x="63.623047"/>
       <use xlink:href="#DejaVuSans-30" x="127.246094"/>
      </g>
     </g>
    </g>
    <g id="xtick_5">
     <g id="line2d_5">
      <g>
       <use xlink:href="#m5b6ebc3d59" x="343.296" y="307.584" style="stroke: #000000; stroke-width: 0.8"/>
      </g>
     </g>
     <g id="text_5">
      <!-- 150 -->
      <g transform="translate(333.75225 322.182437) scale(0.1 -0.1)">
       <use xlink:href="#DejaVuSans-31"/>
       <use xlink:href="#DejaVuSans-35" x="63.623047"/>
       <use xlink:href="#DejaVuSans-30" x="127.246094"/>
      </g>
     </g>
    </g>
    <g id="xtick_6">
     <g id="line2d_6">
      <g>
       <use xlink:href="#m5b6ebc3d59" x="414.72" y="307.584" style="stroke: #000000; stroke-width: 0.8"/>
      </g>
     </g>
     <g id="text_6">
      <!-- 200 -->
      <g transform="translate(405.17625 322.182437) scale(0.1 -0.1)">
       <defs>
        <path id="DejaVuSans-32" d="M 1228 531 
L 3431 531 
L 3431 0 
L 469 0 
L 469 531 
Q 828 903 1448 1529 
Q 2069 2156 2228 2338 
Q 2531 2678 2651 2914 
Q 2772 3150 2772 3378 
Q 2772 3750 2511 3984 
Q 2250 4219 1831 4219 
Q 1534 4219 1204 4116 
Q 875 4013 500 3803 
L 500 4441 
Q 881 4594 1212 4672 
Q 1544 4750 1819 4750 
Q 2544 4750 2975 4387 
Q 3406 4025 3406 3419 
Q 3406 3131 3298 2873 
Q 3191 2616 2906 2266 
Q 2828 2175 2409 1742 
Q 1991 1309 1228 531 
z
" transform="scale(0.015625)"/>
       </defs>
       <use xlink:href="#DejaVuSans-32"/>
       <use xlink:href="#DejaVuSans-30" x="63.623047"/>
       <use xlink:href="#DejaVuSans-30" x="127.246094"/>
      </g>
     </g>
    </g>
    <g id="text_7">
     <!-- time_adj -->
     <g transform="translate(214.736562 335.860562) scale(0.1 -0.1)">
      <defs>
       <path id="DejaVuSans-74" d="M 1172 4494 
L 1172 3500 
L 2356 3500 
L 2356 3053 
L 1172 3053 
L 1172 1153 
Q 1172 725 1289 603 
Q 1406 481 1766 481 
L 2356 481 
L 2356 0 
L 1766 0 
Q 1100 0 847 248 
Q 594 497 594 1153 
L 594 3053 
L 172 3053 
L 172 3500 
L 594 3500 
L 594 4494 
L 1172 4494 
z
" transform="scale(0.015625)"/>
       <path id="DejaVuSans-69" d="M 603 3500 
L 1178 3500 
L 1178 0 
L 603 0 
L 603 3500 
z
M 603 4863 
L 1178 4863 
L 1178 4134 
L 603 4134 
L 603 4863 
z
" transform="scale(0.015625)"/>
       <path id="DejaVuSans-6d" d="M 3328 2828 
Q 3544 3216 3844 3400 
Q 4144 3584 4550 3584 
Q 5097 3584 5394 3201 
Q 5691 2819 5691 2113 
L 5691 0 
L 5113 0 
L 5113 2094 
Q 5113 2597 4934 2840 
Q 4756 3084 4391 3084 
Q 3944 3084 3684 2787 
Q 3425 2491 3425 1978 
L 3425 0 
L 2847 0 
L 2847 2094 
Q 2847 2600 2669 2842 
Q 2491 3084 2119 3084 
Q 1678 3084 1418 2786 
Q 1159 2488 1159 1978 
L 1159 0 
L 581 0 
L 581 3500 
L 1159 3500 
L 1159 2956 
Q 1356 3278 1631 3431 
Q 1906 3584 2284 3584 
Q 2666 3584 2933 3390 
Q 3200 3197 3328 2828 
z
" transform="scale(0.015625)"/>
       <path id="DejaVuSans-65" d="M 3597 1894 
L 3597 1613 
L 953 1613 
Q 991 1019 1311 708 
Q 1631 397 2203 397 
Q 2534 397 2845 478 
Q 3156 559 3463 722 
L 3463 178 
Q 3153 47 2828 -22 
Q 2503 -91 2169 -91 
Q 1331 -91 842 396 
Q 353 884 353 1716 
Q 353 2575 817 3079 
Q 1281 3584 2069 3584 
Q 2775 3584 3186 3129 
Q 3597 2675 3597 1894 
z
M 3022 2063 
Q 3016 2534 2758 2815 
Q 2500 3097 2075 3097 
Q 1594 3097 1305 2825 
Q 1016 2553 972 2059 
L 3022 2063 
z
" transform="scale(0.015625)"/>
       <path id="DejaVuSans-5f" d="M 3263 -1063 
L 3263 -1509 
L -63 -1509 
L -63 -1063 
L 3263 -1063 
z
" transform="scale(0.015625)"/>
       <path id="DejaVuSans-61" d="M 2194 1759 
Q 1497 1759 1228 1600 
Q 959 1441 959 1056 
Q 959 750 1161 570 
Q 1363 391 1709 391 
Q 2188 391 2477 730 
Q 2766 1069 2766 1631 
L 2766 1759 
L 2194 1759 
z
M 3341 1997 
L 3341 0 
L 2766 0 
L 2766 531 
Q 2569 213 2275 61 
Q 1981 -91 1556 -91 
Q 1019 -91 701 211 
Q 384 513 384 1019 
Q 384 1609 779 1909 
Q 1175 2209 1959 2209 
L 2766 2209 
L 2766 2266 
Q 2766 2663 2505 2880 
Q 2244 3097 1772 3097 
Q 1472 3097 1187 3025 
Q 903 2953 641 2809 
L 641 3341 
Q 956 3463 1253 3523 
Q 1550 3584 1831 3584 
Q 2591 3584 2966 3190 
Q 3341 2797 3341 1997 
z
" transform="scale(0.015625)"/>
       <path id="DejaVuSans-64" d="M 2906 2969 
L 2906 4863 
L 3481 4863 
L 3481 0 
L 2906 0 
L 2906 525 
Q 2725 213 2448 61 
Q 2172 -91 1784 -91 
Q 1150 -91 751 415 
Q 353 922 353 1747 
Q 353 2572 751 3078 
Q 1150 3584 1784 3584 
Q 2172 3584 2448 3432 
Q 2725 3281 2906 2969 
z
M 947 1747 
Q 947 1113 1208 752 
Q 1469 391 1925 391 
Q 2381 391 2643 752 
Q 2906 1113 2906 1747 
Q 2906 2381 2643 2742 
Q 2381 3103 1925 3103 
Q 1469 3103 1208 2742 
Q 947 2381 947 1747 
z
" transform="scale(0.015625)"/>
       <path id="DejaVuSans-6a" d="M 603 3500 
L 1178 3500 
L 1178 -63 
Q 1178 -731 923 -1031 
Q 669 -1331 103 -1331 
L -116 -1331 
L -116 -844 
L 38 -844 
Q 366 -844 484 -692 
Q 603 -541 603 -63 
L 603 3500 
z
M 603 4863 
L 1178 4863 
L 1178 4134 
L 603 4134 
L 603 4863 
z
" transform="scale(0.015625)"/>
      </defs>
      <use xlink:href="#DejaVuSans-74"/>
      <use xlink:href="#DejaVuSans-69" x="39.208984"/>
      <use xlink:href="#DejaVuSans-6d" x="66.992188"/>
      <use xlink:href="#DejaVuSans-65" x="164.404297"/>
      <use xlink:href="#DejaVuSans-5f" x="225.927734"/>
      <use xlink:href="#DejaVuSans-61" x="275.927734"/>
      <use xlink:href="#DejaVuSans-64" x="337.207031"/>
      <use xlink:href="#DejaVuSans-6a" x="400.683594"/>
     </g>
    </g>
   </g>
   <g id="matplotlib.axis_2">
    <g id="ytick_1">
     <g id="line2d_7">
      <defs>
       <path id="m5eafb0cfed" d="M 0 0 
L -3.5 0 
" style="stroke: #000000; stroke-width: 0.8"/>
      </defs>
      <g>
       <use xlink:href="#m5eafb0cfed" x="57.6" y="297.064975" style="stroke: #000000; stroke-width: 0.8"/>
      </g>
     </g>
     <g id="text_8">
      <!-- 0.000 -->
      <g transform="translate(21.971875 300.864194) scale(0.1 -0.1)">
       <defs>
        <path id="DejaVuSans-2e" d="M 684 794 
L 1344 794 
L 1344 0 
L 684 0 
L 684 794 
z
" transform="scale(0.015625)"/>
       </defs>
       <use xlink:href="#DejaVuSans-30"/>
       <use xlink:href="#DejaVuSans-2e" x="63.623047"/>
       <use xlink:href="#DejaVuSans-30" x="95.410156"/>
       <use xlink:href="#DejaVuSans-30" x="159.033203"/>
       <use xlink:href="#DejaVuSans-30" x="222.65625"/>
      </g>
     </g>
    </g>
    <g id="ytick_2">
     <g id="line2d_8">
      <g>
       <use xlink:href="#m5eafb0cfed" x="57.6" y="266.211127" style="stroke: #000000; stroke-width: 0.8"/>
      </g>
     </g>
     <g id="text_9">
      <!-- 0.025 -->
      <g transform="translate(21.971875 270.010345) scale(0.1 -0.1)">
       <use xlink:href="#DejaVuSans-30"/>
       <use xlink:href="#DejaVuSans-2e" x="63.623047"/>
       <use xlink:href="#DejaVuSans-30" x="95.410156"/>
       <use xlink:href="#DejaVuSans-32" x="159.033203"/>
       <use xlink:href="#DejaVuSans-35" x="222.65625"/>
      </g>
     </g>
    </g>
    <g id="ytick_3">
     <g id="line2d_9">
      <g>
       <use xlink:href="#m5eafb0cfed" x="57.6" y="235.357278" style="stroke: #000000; stroke-width: 0.8"/>
      </g>
     </g>
     <g id="text_10">
      <!-- 0.050 -->
      <g transform="translate(21.971875 239.156497) scale(0.1 -0.1)">
       <use xlink:href="#DejaVuSans-30"/>
       <use xlink:href="#DejaVuSans-2e" x="63.623047"/>
       <use xlink:href="#DejaVuSans-30" x="95.410156"/>
       <use xlink:href="#DejaVuSans-35" x="159.033203"/>
       <use xlink:href="#DejaVuSans-30" x="222.65625"/>
      </g>
     </g>
    </g>
    <g id="ytick_4">
     <g id="line2d_10">
      <g>
       <use xlink:href="#m5eafb0cfed" x="57.6" y="204.50343" style="stroke: #000000; stroke-width: 0.8"/>
      </g>
     </g>
     <g id="text_11">
      <!-- 0.075 -->
      <g transform="translate(21.971875 208.302649) scale(0.1 -0.1)">
       <defs>
        <path id="DejaVuSans-37" d="M 525 4666 
L 3525 4666 
L 3525 4397 
L 1831 0 
L 1172 0 
L 2766 4134 
L 525 4134 
L 525 4666 
z
" transform="scale(0.015625)"/>
       </defs>
       <use xlink:href="#DejaVuSans-30"/>
       <use xlink:href="#DejaVuSans-2e" x="63.623047"/>
       <use xlink:href="#DejaVuSans-30" x="95.410156"/>
       <use xlink:href="#DejaVuSans-37" x="159.033203"/>
       <use xlink:href="#DejaVuSans-35" x="222.65625"/>
      </g>
     </g>
    </g>
    <g id="ytick_5">
     <g id="line2d_11">
      <g>
       <use xlink:href="#m5eafb0cfed" x="57.6" y="173.649582" style="stroke: #000000; stroke-width: 0.8"/>
      </g>
     </g>
     <g id="text_12">
      <!-- 0.100 -->
      <g transform="translate(21.971875 177.448801) scale(0.1 -0.1)">
       <use xlink:href="#DejaVuSans-30"/>
       <use xlink:href="#DejaVuSans-2e" x="63.623047"/>
       <use xlink:href="#DejaVuSans-31" x="95.410156"/>
       <use xlink:href="#DejaVuSans-30" x="159.033203"/>
       <use xlink:href="#DejaVuSans-30" x="222.65625"/>
      </g>
     </g>
    </g>
    <g id="ytick_6">
     <g id="line2d_12">
      <g>
       <use xlink:href="#m5eafb0cfed" x="57.6" y="142.795734" style="stroke: #000000; stroke-width: 0.8"/>
      </g>
     </g>
     <g id="text_13">
      <!-- 0.125 -->
      <g transform="translate(21.971875 146.594952) scale(0.1 -0.1)">
       <use xlink:href="#DejaVuSans-30"/>
       <use xlink:href="#DejaVuSans-2e" x="63.623047"/>
       <use xlink:href="#DejaVuSans-31" x="95.410156"/>
       <use xlink:href="#DejaVuSans-32" x="159.033203"/>
       <use xlink:href="#DejaVuSans-35" x="222.65625"/>
      </g>
     </g>
    </g>
    <g id="ytick_7">
     <g id="line2d_13">
      <g>
       <use xlink:href="#m5eafb0cfed" x="57.6" y="111.941885" style="stroke: #000000; stroke-width: 0.8"/>
      </g>
     </g>
     <g id="text_14">
      <!-- 0.150 -->
      <g transform="translate(21.971875 115.741104) scale(0.1 -0.1)">
       <use xlink:href="#DejaVuSans-30"/>
       <use xlink:href="#DejaVuSans-2e" x="63.623047"/>
       <use xlink:href="#DejaVuSans-31" x="95.410156"/>
       <use xlink:href="#DejaVuSans-35" x="159.033203"/>
       <use xlink:href="#DejaVuSans-30" x="222.65625"/>
      </g>
     </g>
    </g>
    <g id="ytick_8">
     <g id="line2d_14">
      <g>
       <use xlink:href="#m5eafb0cfed" x="57.6" y="81.088037" style="stroke: #000000; stroke-width: 0.8"/>
      </g>
     </g>
     <g id="text_15">
      <!-- 0.175 -->
      <g transform="translate(21.971875 84.887256) scale(0.1 -0.1)">
       <use xlink:href="#DejaVuSans-30"/>
       <use xlink:href="#DejaVuSans-2e" x="63.623047"/>
       <use xlink:href="#DejaVuSans-31" x="95.410156"/>
       <use xlink:href="#DejaVuSans-37" x="159.033203"/>
       <use xlink:href="#DejaVuSans-35" x="222.65625"/>
      </g>
     </g>
    </g>
    <g id="ytick_9">
     <g id="line2d_15">
      <g>
       <use xlink:href="#m5eafb0cfed" x="57.6" y="50.234189" style="stroke: #000000; stroke-width: 0.8"/>
      </g>
     </g>
     <g id="text_16">
      <!-- 0.200 -->
      <g transform="translate(21.971875 54.033408) scale(0.1 -0.1)">
       <use xlink:href="#DejaVuSans-30"/>
       <use xlink:href="#DejaVuSans-2e" x="63.623047"/>
       <use xlink:href="#DejaVuSans-32" x="95.410156"/>
       <use xlink:href="#DejaVuSans-30" x="159.033203"/>
       <use xlink:href="#DejaVuSans-30" x="222.65625"/>
      </g>
     </g>
    </g>
    <g id="text_17">
     <!-- absvtheta -->
     <g transform="translate(15.892187 199.560031) rotate(-90) scale(0.1 -0.1)">
      <defs>
       <path id="DejaVuSans-62" d="M 3116 1747 
Q 3116 2381 2855 2742 
Q 2594 3103 2138 3103 
Q 1681 3103 1420 2742 
Q 1159 2381 1159 1747 
Q 1159 1113 1420 752 
Q 1681 391 2138 391 
Q 2594 391 2855 752 
Q 3116 1113 3116 1747 
z
M 1159 2969 
Q 1341 3281 1617 3432 
Q 1894 3584 2278 3584 
Q 2916 3584 3314 3078 
Q 3713 2572 3713 1747 
Q 3713 922 3314 415 
Q 2916 -91 2278 -91 
Q 1894 -91 1617 61 
Q 1341 213 1159 525 
L 1159 0 
L 581 0 
L 581 4863 
L 1159 4863 
L 1159 2969 
z
" transform="scale(0.015625)"/>
       <path id="DejaVuSans-73" d="M 2834 3397 
L 2834 2853 
Q 2591 2978 2328 3040 
Q 2066 3103 1784 3103 
Q 1356 3103 1142 2972 
Q 928 2841 928 2578 
Q 928 2378 1081 2264 
Q 1234 2150 1697 2047 
L 1894 2003 
Q 2506 1872 2764 1633 
Q 3022 1394 3022 966 
Q 3022 478 2636 193 
Q 2250 -91 1575 -91 
Q 1294 -91 989 -36 
Q 684 19 347 128 
L 347 722 
Q 666 556 975 473 
Q 1284 391 1588 391 
Q 1994 391 2212 530 
Q 2431 669 2431 922 
Q 2431 1156 2273 1281 
Q 2116 1406 1581 1522 
L 1381 1569 
Q 847 1681 609 1914 
Q 372 2147 372 2553 
Q 372 3047 722 3315 
Q 1072 3584 1716 3584 
Q 2034 3584 2315 3537 
Q 2597 3491 2834 3397 
z
" transform="scale(0.015625)"/>
       <path id="DejaVuSans-76" d="M 191 3500 
L 800 3500 
L 1894 563 
L 2988 3500 
L 3597 3500 
L 2284 0 
L 1503 0 
L 191 3500 
z
" transform="scale(0.015625)"/>
       <path id="DejaVuSans-68" d="M 3513 2113 
L 3513 0 
L 2938 0 
L 2938 2094 
Q 2938 2591 2744 2837 
Q 2550 3084 2163 3084 
Q 1697 3084 1428 2787 
Q 1159 2491 1159 1978 
L 1159 0 
L 581 0 
L 581 4863 
L 1159 4863 
L 1159 2956 
Q 1366 3272 1645 3428 
Q 1925 3584 2291 3584 
Q 2894 3584 3203 3211 
Q 3513 2838 3513 2113 
z
" transform="scale(0.015625)"/>
      </defs>
      <use xlink:href="#DejaVuSans-61"/>
      <use xlink:href="#DejaVuSans-62" x="61.279297"/>
      <use xlink:href="#DejaVuSans-73" x="124.755859"/>
      <use xlink:href="#DejaVuSans-76" x="176.855469"/>
      <use xlink:href="#DejaVuSans-74" x="236.035156"/>
      <use xlink:href="#DejaVuSans-68" x="275.244141"/>
      <use xlink:href="#DejaVuSans-65" x="338.623047"/>
      <use xlink:href="#DejaVuSans-74" x="400.146484"/>
      <use xlink:href="#DejaVuSans-61" x="439.355469"/>
     </g>
    </g>
   </g>
   <g id="line2d_16">
    <path d="M -1 290.159619 
L 7.6032 288.322583 
L 21.888 289.900588 
L 36.1728 290.76736 
L 50.4576 290.430187 
L 64.7424 291.313727 
L 79.0272 289.507262 
L 93.312 289.580245 
L 107.5968 280.915519 
L 121.8816 278.388461 
L 136.1664 245.314546 
L 150.4512 170.90776 
L 164.736 114.824312 
L 179.0208 166.070057 
L 193.3056 200.407649 
L 207.5904 207.293405 
L 221.8752 235.815665 
L 236.16 247.116392 
L 250.4448 246.679829 
L 264.7296 263.304608 
L 279.0144 271.146628 
L 293.2992 275.465668 
L 307.584 283.365189 
L 321.8688 283.205042 
L 336.1536 288.660534 
L 350.4384 290.880314 
L 364.7232 289.799151 
L 379.008 292.255654 
L 393.2928 291.393799 
L 407.5776 293.141365 
L 421.8624 293.829483 
L 436.1472 293.704417 
L 450.432 293.840431 
L 461.8 294.212131 
" clip-path="url(#pd75c8aebb9)" style="fill: none; stroke: #1f77b4; stroke-width: 1.5; stroke-linecap: square"/>
   </g>
   <g id="line2d_17">
    <path d="M -1 287.77744 
L 7.6032 289.110442 
L 21.888 290.699541 
L 36.1728 290.432471 
L 50.4576 287.017321 
L 64.7424 291.846726 
L 79.0272 287.386301 
L 93.312 289.087275 
L 107.5968 289.635421 
L 121.8816 288.685035 
L 136.1664 284.151032 
L 150.4512 232.401175 
L 164.736 157.704786 
L 179.0208 164.07456 
L 193.3056 211.913868 
L 207.5904 205.801843 
L 221.8752 221.146414 
L 236.16 240.717692 
L 250.4448 241.338525 
L 264.7296 245.573351 
L 279.0144 257.105478 
L 293.2992 267.657749 
L 307.584 273.710038 
L 321.8688 276.11391 
L 336.1536 281.270023 
L 350.4384 286.060533 
L 364.7232 283.042715 
L 379.008 287.15177 
L 393.2928 287.253013 
L 407.5776 290.325795 
L 421.8624 291.048186 
L 436.1472 291.484418 
L 450.432 292.987404 
L 461.8 292.877296 
" clip-path="url(#pd75c8aebb9)" style="fill: none; stroke: #ff7f0e; stroke-width: 1.5; stroke-linecap: square"/>
   </g>
   <g id="line2d_18"/>
   <g id="line2d_19"/>
   <g id="patch_3">
    <path d="M 57.6 307.584 
L 57.6 41.472 
" style="fill: none; stroke: #000000; stroke-width: 0.8; stroke-linejoin: miter; stroke-linecap: square"/>
   </g>
   <g id="patch_4">
    <path d="M 414.72 307.584 
L 414.72 41.472 
" style="fill: none; stroke: #000000; stroke-width: 0.8; stroke-linejoin: miter; stroke-linecap: square"/>
   </g>
   <g id="patch_5">
    <path d="M 57.6 307.584 
L 414.72 307.584 
" style="fill: none; stroke: #000000; stroke-width: 0.8; stroke-linejoin: miter; stroke-linecap: square"/>
   </g>
   <g id="patch_6">
    <path d="M 57.6 41.472 
L 414.72 41.472 
" style="fill: none; stroke: #000000; stroke-width: 0.8; stroke-linejoin: miter; stroke-linecap: square"/>
   </g>
   <g id="legend_1">
    <g id="patch_7">
     <path d="M 356.174688 93.506375 
L 407.72 93.506375 
Q 409.72 93.506375 409.72 91.506375 
L 409.72 48.472 
Q 409.72 46.472 407.72 46.472 
L 356.174688 46.472 
Q 354.174688 46.472 354.174688 48.472 
L 354.174688 91.506375 
Q 354.174688 93.506375 356.174688 93.506375 
z
" style="fill: #ffffff; opacity: 0.8; stroke: #cccccc; stroke-linejoin: miter"/>
    </g>
    <g id="text_18">
     <!-- condition -->
     <g transform="translate(358.829375 58.070438) scale(0.1 -0.1)">
      <defs>
       <path id="DejaVuSans-63" d="M 3122 3366 
L 3122 2828 
Q 2878 2963 2633 3030 
Q 2388 3097 2138 3097 
Q 1578 3097 1268 2742 
Q 959 2388 959 1747 
Q 959 1106 1268 751 
Q 1578 397 2138 397 
Q 2388 397 2633 464 
Q 2878 531 3122 666 
L 3122 134 
Q 2881 22 2623 -34 
Q 2366 -91 2075 -91 
Q 1284 -91 818 406 
Q 353 903 353 1747 
Q 353 2603 823 3093 
Q 1294 3584 2113 3584 
Q 2378 3584 2631 3529 
Q 2884 3475 3122 3366 
z
" transform="scale(0.015625)"/>
       <path id="DejaVuSans-6f" d="M 1959 3097 
Q 1497 3097 1228 2736 
Q 959 2375 959 1747 
Q 959 1119 1226 758 
Q 1494 397 1959 397 
Q 2419 397 2687 759 
Q 2956 1122 2956 1747 
Q 2956 2369 2687 2733 
Q 2419 3097 1959 3097 
z
M 1959 3584 
Q 2709 3584 3137 3096 
Q 3566 2609 3566 1747 
Q 3566 888 3137 398 
Q 2709 -91 1959 -91 
Q 1206 -91 779 398 
Q 353 888 353 1747 
Q 353 2609 779 3096 
Q 1206 3584 1959 3584 
z
" transform="scale(0.015625)"/>
       <path id="DejaVuSans-6e" d="M 3513 2113 
L 3513 0 
L 2938 0 
L 2938 2094 
Q 2938 2591 2744 2837 
Q 2550 3084 2163 3084 
Q 1697 3084 1428 2787 
Q 1159 2491 1159 1978 
L 1159 0 
L 581 0 
L 581 3500 
L 1159 3500 
L 1159 2956 
Q 1366 3272 1645 3428 
Q 1925 3584 2291 3584 
Q 2894 3584 3203 3211 
Q 3513 2838 3513 2113 
z
" transform="scale(0.015625)"/>
      </defs>
      <use xlink:href="#DejaVuSans-63"/>
      <use xlink:href="#DejaVuSans-6f" x="54.980469"/>
      <use xlink:href="#DejaVuSans-6e" x="116.162109"/>
      <use xlink:href="#DejaVuSans-64" x="179.541016"/>
      <use xlink:href="#DejaVuSans-69" x="243.017578"/>
      <use xlink:href="#DejaVuSans-74" x="270.800781"/>
      <use xlink:href="#DejaVuSans-69" x="310.009766"/>
      <use xlink:href="#DejaVuSans-6f" x="337.792969"/>
      <use xlink:href="#DejaVuSans-6e" x="398.974609"/>
     </g>
    </g>
    <g id="line2d_20">
     <path d="M 358.174688 69.248563 
L 368.174688 69.248563 
L 378.174688 69.248563 
" style="fill: none; stroke: #1f77b4; stroke-width: 1.5; stroke-linecap: square"/>
    </g>
    <g id="text_19">
     <!-- sibs -->
     <g transform="translate(386.174688 72.748563) scale(0.1 -0.1)">
      <use xlink:href="#DejaVuSans-73"/>
      <use xlink:href="#DejaVuSans-69" x="52.099609"/>
      <use xlink:href="#DejaVuSans-62" x="79.882812"/>
      <use xlink:href="#DejaVuSans-73" x="143.359375"/>
     </g>
    </g>
    <g id="line2d_21">
     <path d="M 358.174688 83.926688 
L 368.174688 83.926688 
L 378.174688 83.926688 
" style="fill: none; stroke: #ff7f0e; stroke-width: 1.5; stroke-linecap: square"/>
    </g>
    <g id="text_20">
     <!-- tau -->
     <g transform="translate(386.174688 87.426688) scale(0.1 -0.1)">
      <defs>
       <path id="DejaVuSans-75" d="M 544 1381 
L 544 3500 
L 1119 3500 
L 1119 1403 
Q 1119 906 1312 657 
Q 1506 409 1894 409 
Q 2359 409 2629 706 
Q 2900 1003 2900 1516 
L 2900 3500 
L 3475 3500 
L 3475 0 
L 2900 0 
L 2900 538 
Q 2691 219 2414 64 
Q 2138 -91 1772 -91 
Q 1169 -91 856 284 
Q 544 659 544 1381 
z
M 1991 3584 
L 1991 3584 
z
" transform="scale(0.015625)"/>
      </defs>
      <use xlink:href="#DejaVuSans-74"/>
      <use xlink:href="#DejaVuSans-61" x="39.208984"/>
      <use xlink:href="#DejaVuSans-75" x="100.488281"/>
     </g>
    </g>
   </g>
  </g>
 </g>
 <defs>
  <clipPath id="pd75c8aebb9">
   <rect x="57.6" y="41.472" width="357.12" height="266.112"/>
  </clipPath>
 </defs>
</svg>
