<?xml version="1.0" encoding="utf-8" standalone="no"?>
<!DOCTYPE svg PUBLIC "-//W3C//DTD SVG 1.1//EN"
  "http://www.w3.org/Graphics/SVG/1.1/DTD/svg11.dtd">
<svg xmlns:xlink="http://www.w3.org/1999/xlink" width="771.84pt" height="216pt" viewBox="0 0 771.84 216" xmlns="http://www.w3.org/2000/svg" version="1.1">
 <metadata>
  <rdf:RDF xmlns:dc="http://purl.org/dc/elements/1.1/" xmlns:cc="http://creativecommons.org/ns#" xmlns:rdf="http://www.w3.org/1999/02/22-rdf-syntax-ns#">
   <cc:Work>
    <dc:type rdf:resource="http://purl.org/dc/dcmitype/StillImage"/>
    <dc:date>2024-06-11T11:56:08.124424</dc:date>
    <dc:format>image/svg+xml</dc:format>
    <dc:creator>
     <cc:Agent>
      <dc:title>Matplotlib v3.9.0, https://matplotlib.org/</dc:title>
     </cc:Agent>
    </dc:creator>
   </cc:Work>
  </rdf:RDF>
 </metadata>
 <defs>
  <style type="text/css">*{stroke-linejoin: round; stroke-linecap: butt}</style>
 </defs>
 <g id="figure_1">
  <g id="patch_1">
   <path d="M 0 216 
L 771.84 216 
L 771.84 0 
L 0 0 
z
" style="fill: #ffffff"/>
  </g>
  <g id="axes_1">
   <g id="patch_2">
    <path d="M 57.000622 173.32 
L 217.081062 173.32 
L 217.081062 24.72 
L 57.000622 24.72 
z
" style="fill: #ffffff"/>
   </g>
   <g id="patch_3">
    <path d="M 136.982043 173.32 
L 137.099641 173.32 
L 137.099641 53.569084 
L 136.982043 53.569084 
z
" clip-path="url(#pbdb3063527)" style="fill: #3274a1"/>
   </g>
   <g id="patch_4">
    <path d="M 137.12904 173.32 
L 137.246639 173.32 
L 137.246639 31.79619 
L 137.12904 31.79619 
z
" clip-path="url(#pbdb3063527)" style="fill: #3274a1"/>
   </g>
   <g id="patch_5">
    <path d="M 136.982043 173.32 
L 137.099641 173.32 
L 137.099641 151.547106 
L 136.982043 151.547106 
z
" clip-path="url(#pbdb3063527)" style="fill: #e1812c"/>
   </g>
   <g id="patch_6">
    <path d="M 137.12904 173.32 
L 137.246639 173.32 
L 137.246639 173.32 
L 137.12904 173.32 
z
" clip-path="url(#pbdb3063527)" style="fill: #e1812c"/>
   </g>
   <g id="matplotlib.axis_1">
    <g id="xtick_1">
     <g id="line2d_1">
      <defs>
       <path id="mfb4b0842ff" d="M 0 0 
L 0 3.5 
" style="stroke: #000000; stroke-width: 0.8"/>
      </defs>
      <g>
       <use xlink:href="#mfb4b0842ff" x="137.040842" y="173.32" style="stroke: #000000; stroke-width: 0.8"/>
      </g>
     </g>
     <g id="text_1">
      <!-- 240304_f0trial1 -->
      <g transform="translate(97.472873 187.918438) scale(0.1 -0.1)">
       <defs>
        <path id="DejaVuSans-32" d="M 1228 531 
L 3431 531 
L 3431 0 
L 469 0 
L 469 531 
Q 828 903 1448 1529 
Q 2069 2156 2228 2338 
Q 2531 2678 2651 2914 
Q 2772 3150 2772 3378 
Q 2772 3750 2511 3984 
Q 2250 4219 1831 4219 
Q 1534 4219 1204 4116 
Q 875 4013 500 3803 
L 500 4441 
Q 881 4594 1212 4672 
Q 1544 4750 1819 4750 
Q 2544 4750 2975 4387 
Q 3406 4025 3406 3419 
Q 3406 3131 3298 2873 
Q 3191 2616 2906 2266 
Q 2828 2175 2409 1742 
Q 1991 1309 1228 531 
z
" transform="scale(0.015625)"/>
        <path id="DejaVuSans-34" d="M 2419 4116 
L 825 1625 
L 2419 1625 
L 2419 4116 
z
M 2253 4666 
L 3047 4666 
L 3047 1625 
L 3713 1625 
L 3713 1100 
L 3047 1100 
L 3047 0 
L 2419 0 
L 2419 1100 
L 313 1100 
L 313 1709 
L 2253 4666 
z
" transform="scale(0.015625)"/>
        <path id="DejaVuSans-30" d="M 2034 4250 
Q 1547 4250 1301 3770 
Q 1056 3291 1056 2328 
Q 1056 1369 1301 889 
Q 1547 409 2034 409 
Q 2525 409 2770 889 
Q 3016 1369 3016 2328 
Q 3016 3291 2770 3770 
Q 2525 4250 2034 4250 
z
M 2034 4750 
Q 2819 4750 3233 4129 
Q 3647 3509 3647 2328 
Q 3647 1150 3233 529 
Q 2819 -91 2034 -91 
Q 1250 -91 836 529 
Q 422 1150 422 2328 
Q 422 3509 836 4129 
Q 1250 4750 2034 4750 
z
" transform="scale(0.015625)"/>
        <path id="DejaVuSans-33" d="M 2597 2516 
Q 3050 2419 3304 2112 
Q 3559 1806 3559 1356 
Q 3559 666 3084 287 
Q 2609 -91 1734 -91 
Q 1441 -91 1130 -33 
Q 819 25 488 141 
L 488 750 
Q 750 597 1062 519 
Q 1375 441 1716 441 
Q 2309 441 2620 675 
Q 2931 909 2931 1356 
Q 2931 1769 2642 2001 
Q 2353 2234 1838 2234 
L 1294 2234 
L 1294 2753 
L 1863 2753 
Q 2328 2753 2575 2939 
Q 2822 3125 2822 3475 
Q 2822 3834 2567 4026 
Q 2313 4219 1838 4219 
Q 1578 4219 1281 4162 
Q 984 4106 628 3988 
L 628 4550 
Q 988 4650 1302 4700 
Q 1616 4750 1894 4750 
Q 2613 4750 3031 4423 
Q 3450 4097 3450 3541 
Q 3450 3153 3228 2886 
Q 3006 2619 2597 2516 
z
" transform="scale(0.015625)"/>
        <path id="DejaVuSans-5f" d="M 3263 -1063 
L 3263 -1509 
L -63 -1509 
L -63 -1063 
L 3263 -1063 
z
" transform="scale(0.015625)"/>
        <path id="DejaVuSans-66" d="M 2375 4863 
L 2375 4384 
L 1825 4384 
Q 1516 4384 1395 4259 
Q 1275 4134 1275 3809 
L 1275 3500 
L 2222 3500 
L 2222 3053 
L 1275 3053 
L 1275 0 
L 697 0 
L 697 3053 
L 147 3053 
L 147 3500 
L 697 3500 
L 697 3744 
Q 697 4328 969 4595 
Q 1241 4863 1831 4863 
L 2375 4863 
z
" transform="scale(0.015625)"/>
        <path id="DejaVuSans-74" d="M 1172 4494 
L 1172 3500 
L 2356 3500 
L 2356 3053 
L 1172 3053 
L 1172 1153 
Q 1172 725 1289 603 
Q 1406 481 1766 481 
L 2356 481 
L 2356 0 
L 1766 0 
Q 1100 0 847 248 
Q 594 497 594 1153 
L 594 3053 
L 172 3053 
L 172 3500 
L 594 3500 
L 594 4494 
L 1172 4494 
z
" transform="scale(0.015625)"/>
        <path id="DejaVuSans-72" d="M 2631 2963 
Q 2534 3019 2420 3045 
Q 2306 3072 2169 3072 
Q 1681 3072 1420 2755 
Q 1159 2438 1159 1844 
L 1159 0 
L 581 0 
L 581 3500 
L 1159 3500 
L 1159 2956 
Q 1341 3275 1631 3429 
Q 1922 3584 2338 3584 
Q 2397 3584 2469 3576 
Q 2541 3569 2628 3553 
L 2631 2963 
z
" transform="scale(0.015625)"/>
        <path id="DejaVuSans-69" d="M 603 3500 
L 1178 3500 
L 1178 0 
L 603 0 
L 603 3500 
z
M 603 4863 
L 1178 4863 
L 1178 4134 
L 603 4134 
L 603 4863 
z
" transform="scale(0.015625)"/>
        <path id="DejaVuSans-61" d="M 2194 1759 
Q 1497 1759 1228 1600 
Q 959 1441 959 1056 
Q 959 750 1161 570 
Q 1363 391 1709 391 
Q 2188 391 2477 730 
Q 2766 1069 2766 1631 
L 2766 1759 
L 2194 1759 
z
M 3341 1997 
L 3341 0 
L 2766 0 
L 2766 531 
Q 2569 213 2275 61 
Q 1981 -91 1556 -91 
Q 1019 -91 701 211 
Q 384 513 384 1019 
Q 384 1609 779 1909 
Q 1175 2209 1959 2209 
L 2766 2209 
L 2766 2266 
Q 2766 2663 2505 2880 
Q 2244 3097 1772 3097 
Q 1472 3097 1187 3025 
Q 903 2953 641 2809 
L 641 3341 
Q 956 3463 1253 3523 
Q 1550 3584 1831 3584 
Q 2591 3584 2966 3190 
Q 3341 2797 3341 1997 
z
" transform="scale(0.015625)"/>
        <path id="DejaVuSans-6c" d="M 603 4863 
L 1178 4863 
L 1178 0 
L 603 0 
L 603 4863 
z
" transform="scale(0.015625)"/>
        <path id="DejaVuSans-31" d="M 794 531 
L 1825 531 
L 1825 4091 
L 703 3866 
L 703 4441 
L 1819 4666 
L 2450 4666 
L 2450 531 
L 3481 531 
L 3481 0 
L 794 0 
L 794 531 
z
" transform="scale(0.015625)"/>
       </defs>
       <use xlink:href="#DejaVuSans-32"/>
       <use xlink:href="#DejaVuSans-34" x="63.623047"/>
       <use xlink:href="#DejaVuSans-30" x="127.246094"/>
       <use xlink:href="#DejaVuSans-33" x="190.869141"/>
       <use xlink:href="#DejaVuSans-30" x="254.492188"/>
       <use xlink:href="#DejaVuSans-34" x="318.115234"/>
       <use xlink:href="#DejaVuSans-5f" x="381.738281"/>
       <use xlink:href="#DejaVuSans-66" x="431.738281"/>
       <use xlink:href="#DejaVuSans-30" x="466.943359"/>
       <use xlink:href="#DejaVuSans-74" x="530.566406"/>
       <use xlink:href="#DejaVuSans-72" x="569.775391"/>
       <use xlink:href="#DejaVuSans-69" x="610.888672"/>
       <use xlink:href="#DejaVuSans-61" x="638.671875"/>
       <use xlink:href="#DejaVuSans-6c" x="699.951172"/>
       <use xlink:href="#DejaVuSans-31" x="727.734375"/>
      </g>
     </g>
    </g>
    <g id="xtick_2">
     <g id="line2d_2">
      <g>
       <use xlink:href="#mfb4b0842ff" x="137.18784" y="173.32" style="stroke: #000000; stroke-width: 0.8"/>
      </g>
     </g>
     <g id="text_2">
      <!-- 240304_f0trial2 -->
      <g transform="translate(97.619871 187.918438) scale(0.1 -0.1)">
       <use xlink:href="#DejaVuSans-32"/>
       <use xlink:href="#DejaVuSans-34" x="63.623047"/>
       <use xlink:href="#DejaVuSans-30" x="127.246094"/>
       <use xlink:href="#DejaVuSans-33" x="190.869141"/>
       <use xlink:href="#DejaVuSans-30" x="254.492188"/>
       <use xlink:href="#DejaVuSans-34" x="318.115234"/>
       <use xlink:href="#DejaVuSans-5f" x="381.738281"/>
       <use xlink:href="#DejaVuSans-66" x="431.738281"/>
       <use xlink:href="#DejaVuSans-30" x="466.943359"/>
       <use xlink:href="#DejaVuSans-74" x="530.566406"/>
       <use xlink:href="#DejaVuSans-72" x="569.775391"/>
       <use xlink:href="#DejaVuSans-69" x="610.888672"/>
       <use xlink:href="#DejaVuSans-61" x="638.671875"/>
       <use xlink:href="#DejaVuSans-6c" x="699.951172"/>
       <use xlink:href="#DejaVuSans-32" x="727.734375"/>
      </g>
     </g>
    </g>
    <g id="xtick_3">
     <g id="line2d_3">
      <g>
       <use xlink:href="#mfb4b0842ff" x="137.334837" y="173.32" style="stroke: #000000; stroke-width: 0.8"/>
      </g>
     </g>
     <g id="text_3">
      <!-- 240304_f0trial3 -->
      <g transform="translate(97.766868 187.918438) scale(0.1 -0.1)">
       <use xlink:href="#DejaVuSans-32"/>
       <use xlink:href="#DejaVuSans-34" x="63.623047"/>
       <use xlink:href="#DejaVuSans-30" x="127.246094"/>
       <use xlink:href="#DejaVuSans-33" x="190.869141"/>
       <use xlink:href="#DejaVuSans-30" x="254.492188"/>
       <use xlink:href="#DejaVuSans-34" x="318.115234"/>
       <use xlink:href="#DejaVuSans-5f" x="381.738281"/>
       <use xlink:href="#DejaVuSans-66" x="431.738281"/>
       <use xlink:href="#DejaVuSans-30" x="466.943359"/>
       <use xlink:href="#DejaVuSans-74" x="530.566406"/>
       <use xlink:href="#DejaVuSans-72" x="569.775391"/>
       <use xlink:href="#DejaVuSans-69" x="610.888672"/>
       <use xlink:href="#DejaVuSans-61" x="638.671875"/>
       <use xlink:href="#DejaVuSans-6c" x="699.951172"/>
       <use xlink:href="#DejaVuSans-33" x="727.734375"/>
      </g>
     </g>
    </g>
    <g id="xtick_4">
     <g id="line2d_4">
      <g>
       <use xlink:href="#mfb4b0842ff" x="137.481835" y="173.32" style="stroke: #000000; stroke-width: 0.8"/>
      </g>
     </g>
     <g id="text_4">
      <!-- 240304_f0trial4 -->
      <g transform="translate(97.913866 187.918438) scale(0.1 -0.1)">
       <use xlink:href="#DejaVuSans-32"/>
       <use xlink:href="#DejaVuSans-34" x="63.623047"/>
       <use xlink:href="#DejaVuSans-30" x="127.246094"/>
       <use xlink:href="#DejaVuSans-33" x="190.869141"/>
       <use xlink:href="#DejaVuSans-30" x="254.492188"/>
       <use xlink:href="#DejaVuSans-34" x="318.115234"/>
       <use xlink:href="#DejaVuSans-5f" x="381.738281"/>
       <use xlink:href="#DejaVuSans-66" x="431.738281"/>
       <use xlink:href="#DejaVuSans-30" x="466.943359"/>
       <use xlink:href="#DejaVuSans-74" x="530.566406"/>
       <use xlink:href="#DejaVuSans-72" x="569.775391"/>
       <use xlink:href="#DejaVuSans-69" x="610.888672"/>
       <use xlink:href="#DejaVuSans-61" x="638.671875"/>
       <use xlink:href="#DejaVuSans-6c" x="699.951172"/>
       <use xlink:href="#DejaVuSans-34" x="727.734375"/>
      </g>
     </g>
    </g>
    <g id="text_5">
     <!-- Trial ID -->
     <g transform="translate(119.912717 201.874688) scale(0.1 -0.1)">
      <defs>
       <path id="DejaVuSans-54" d="M -19 4666 
L 3928 4666 
L 3928 4134 
L 2272 4134 
L 2272 0 
L 1638 0 
L 1638 4134 
L -19 4134 
L -19 4666 
z
" transform="scale(0.015625)"/>
       <path id="DejaVuSans-20" transform="scale(0.015625)"/>
       <path id="DejaVuSans-49" d="M 628 4666 
L 1259 4666 
L 1259 0 
L 628 0 
L 628 4666 
z
" transform="scale(0.015625)"/>
       <path id="DejaVuSans-44" d="M 1259 4147 
L 1259 519 
L 2022 519 
Q 2988 519 3436 956 
Q 3884 1394 3884 2338 
Q 3884 3275 3436 3711 
Q 2988 4147 2022 4147 
L 1259 4147 
z
M 628 4666 
L 1925 4666 
Q 3281 4666 3915 4102 
Q 4550 3538 4550 2338 
Q 4550 1131 3912 565 
Q 3275 0 1925 0 
L 628 0 
L 628 4666 
z
" transform="scale(0.015625)"/>
      </defs>
      <use xlink:href="#DejaVuSans-54"/>
      <use xlink:href="#DejaVuSans-72" x="46.333984"/>
      <use xlink:href="#DejaVuSans-69" x="87.447266"/>
      <use xlink:href="#DejaVuSans-61" x="115.230469"/>
      <use xlink:href="#DejaVuSans-6c" x="176.509766"/>
      <use xlink:href="#DejaVuSans-20" x="204.292969"/>
      <use xlink:href="#DejaVuSans-49" x="236.080078"/>
      <use xlink:href="#DejaVuSans-44" x="265.572266"/>
     </g>
    </g>
   </g>
   <g id="matplotlib.axis_2">
    <g id="ytick_1">
     <g id="line2d_5">
      <defs>
       <path id="m3437a2fe9e" d="M 0 0 
L -3.5 0 
" style="stroke: #000000; stroke-width: 0.8"/>
      </defs>
      <g>
       <use xlink:href="#m3437a2fe9e" x="57.000622" y="173.32" style="stroke: #000000; stroke-width: 0.8"/>
      </g>
     </g>
     <g id="text_6">
      <!-- 0.0 -->
      <g transform="translate(34.097497 177.119219) scale(0.1 -0.1)">
       <defs>
        <path id="DejaVuSans-2e" d="M 684 794 
L 1344 794 
L 1344 0 
L 684 0 
L 684 794 
z
" transform="scale(0.015625)"/>
       </defs>
       <use xlink:href="#DejaVuSans-30"/>
       <use xlink:href="#DejaVuSans-2e" x="63.623047"/>
       <use xlink:href="#DejaVuSans-30" x="95.410156"/>
      </g>
     </g>
    </g>
    <g id="ytick_2">
     <g id="line2d_6">
      <g>
       <use xlink:href="#m3437a2fe9e" x="57.000622" y="145.015238" style="stroke: #000000; stroke-width: 0.8"/>
      </g>
     </g>
     <g id="text_7">
      <!-- 0.2 -->
      <g transform="translate(34.097497 148.814457) scale(0.1 -0.1)">
       <use xlink:href="#DejaVuSans-30"/>
       <use xlink:href="#DejaVuSans-2e" x="63.623047"/>
       <use xlink:href="#DejaVuSans-32" x="95.410156"/>
      </g>
     </g>
    </g>
    <g id="ytick_3">
     <g id="line2d_7">
      <g>
       <use xlink:href="#m3437a2fe9e" x="57.000622" y="116.710476" style="stroke: #000000; stroke-width: 0.8"/>
      </g>
     </g>
     <g id="text_8">
      <!-- 0.4 -->
      <g transform="translate(34.097497 120.509695) scale(0.1 -0.1)">
       <use xlink:href="#DejaVuSans-30"/>
       <use xlink:href="#DejaVuSans-2e" x="63.623047"/>
       <use xlink:href="#DejaVuSans-34" x="95.410156"/>
      </g>
     </g>
    </g>
    <g id="ytick_4">
     <g id="line2d_8">
      <g>
       <use xlink:href="#m3437a2fe9e" x="57.000622" y="88.405714" style="stroke: #000000; stroke-width: 0.8"/>
      </g>
     </g>
     <g id="text_9">
      <!-- 0.6 -->
      <g transform="translate(34.097497 92.204933) scale(0.1 -0.1)">
       <defs>
        <path id="DejaVuSans-36" d="M 2113 2584 
Q 1688 2584 1439 2293 
Q 1191 2003 1191 1497 
Q 1191 994 1439 701 
Q 1688 409 2113 409 
Q 2538 409 2786 701 
Q 3034 994 3034 1497 
Q 3034 2003 2786 2293 
Q 2538 2584 2113 2584 
z
M 3366 4563 
L 3366 3988 
Q 3128 4100 2886 4159 
Q 2644 4219 2406 4219 
Q 1781 4219 1451 3797 
Q 1122 3375 1075 2522 
Q 1259 2794 1537 2939 
Q 1816 3084 2150 3084 
Q 2853 3084 3261 2657 
Q 3669 2231 3669 1497 
Q 3669 778 3244 343 
Q 2819 -91 2113 -91 
Q 1303 -91 875 529 
Q 447 1150 447 2328 
Q 447 3434 972 4092 
Q 1497 4750 2381 4750 
Q 2619 4750 2861 4703 
Q 3103 4656 3366 4563 
z
" transform="scale(0.015625)"/>
       </defs>
       <use xlink:href="#DejaVuSans-30"/>
       <use xlink:href="#DejaVuSans-2e" x="63.623047"/>
       <use xlink:href="#DejaVuSans-36" x="95.410156"/>
      </g>
     </g>
    </g>
    <g id="ytick_5">
     <g id="line2d_9">
      <g>
       <use xlink:href="#m3437a2fe9e" x="57.000622" y="60.100952" style="stroke: #000000; stroke-width: 0.8"/>
      </g>
     </g>
     <g id="text_10">
      <!-- 0.8 -->
      <g transform="translate(34.097497 63.900171) scale(0.1 -0.1)">
       <defs>
        <path id="DejaVuSans-38" d="M 2034 2216 
Q 1584 2216 1326 1975 
Q 1069 1734 1069 1313 
Q 1069 891 1326 650 
Q 1584 409 2034 409 
Q 2484 409 2743 651 
Q 3003 894 3003 1313 
Q 3003 1734 2745 1975 
Q 2488 2216 2034 2216 
z
M 1403 2484 
Q 997 2584 770 2862 
Q 544 3141 544 3541 
Q 544 4100 942 4425 
Q 1341 4750 2034 4750 
Q 2731 4750 3128 4425 
Q 3525 4100 3525 3541 
Q 3525 3141 3298 2862 
Q 3072 2584 2669 2484 
Q 3125 2378 3379 2068 
Q 3634 1759 3634 1313 
Q 3634 634 3220 271 
Q 2806 -91 2034 -91 
Q 1263 -91 848 271 
Q 434 634 434 1313 
Q 434 1759 690 2068 
Q 947 2378 1403 2484 
z
M 1172 3481 
Q 1172 3119 1398 2916 
Q 1625 2713 2034 2713 
Q 2441 2713 2670 2916 
Q 2900 3119 2900 3481 
Q 2900 3844 2670 4047 
Q 2441 4250 2034 4250 
Q 1625 4250 1398 4047 
Q 1172 3844 1172 3481 
z
" transform="scale(0.015625)"/>
       </defs>
       <use xlink:href="#DejaVuSans-30"/>
       <use xlink:href="#DejaVuSans-2e" x="63.623047"/>
       <use xlink:href="#DejaVuSans-38" x="95.410156"/>
      </g>
     </g>
    </g>
    <g id="ytick_6">
     <g id="line2d_10">
      <g>
       <use xlink:href="#m3437a2fe9e" x="57.000622" y="31.79619" style="stroke: #000000; stroke-width: 0.8"/>
      </g>
     </g>
     <g id="text_11">
      <!-- 1.0 -->
      <g transform="translate(34.097497 35.595409) scale(0.1 -0.1)">
       <use xlink:href="#DejaVuSans-31"/>
       <use xlink:href="#DejaVuSans-2e" x="63.623047"/>
       <use xlink:href="#DejaVuSans-30" x="95.410156"/>
      </g>
     </g>
    </g>
    <g id="text_12">
     <!-- Rate -->
     <g transform="translate(28.01781 110.4825) rotate(-90) scale(0.1 -0.1)">
      <defs>
       <path id="DejaVuSans-52" d="M 2841 2188 
Q 3044 2119 3236 1894 
Q 3428 1669 3622 1275 
L 4263 0 
L 3584 0 
L 2988 1197 
Q 2756 1666 2539 1819 
Q 2322 1972 1947 1972 
L 1259 1972 
L 1259 0 
L 628 0 
L 628 4666 
L 2053 4666 
Q 2853 4666 3247 4331 
Q 3641 3997 3641 3322 
Q 3641 2881 3436 2590 
Q 3231 2300 2841 2188 
z
M 1259 4147 
L 1259 2491 
L 2053 2491 
Q 2509 2491 2742 2702 
Q 2975 2913 2975 3322 
Q 2975 3731 2742 3939 
Q 2509 4147 2053 4147 
L 1259 4147 
z
" transform="scale(0.015625)"/>
       <path id="DejaVuSans-65" d="M 3597 1894 
L 3597 1613 
L 953 1613 
Q 991 1019 1311 708 
Q 1631 397 2203 397 
Q 2534 397 2845 478 
Q 3156 559 3463 722 
L 3463 178 
Q 3153 47 2828 -22 
Q 2503 -91 2169 -91 
Q 1331 -91 842 396 
Q 353 884 353 1716 
Q 353 2575 817 3079 
Q 1281 3584 2069 3584 
Q 2775 3584 3186 3129 
Q 3597 2675 3597 1894 
z
M 3022 2063 
Q 3016 2534 2758 2815 
Q 2500 3097 2075 3097 
Q 1594 3097 1305 2825 
Q 1016 2553 972 2059 
L 3022 2063 
z
" transform="scale(0.015625)"/>
      </defs>
      <use xlink:href="#DejaVuSans-52"/>
      <use xlink:href="#DejaVuSans-61" x="67.232422"/>
      <use xlink:href="#DejaVuSans-74" x="128.511719"/>
      <use xlink:href="#DejaVuSans-65" x="167.720703"/>
     </g>
    </g>
   </g>
   <g id="line2d_11">
    <path clip-path="url(#pbdb3063527)" style="fill: none; stroke: #424242; stroke-width: 2.25; stroke-linecap: square"/>
   </g>
   <g id="line2d_12">
    <path clip-path="url(#pbdb3063527)" style="fill: none; stroke: #424242; stroke-width: 2.25; stroke-linecap: square"/>
   </g>
   <g id="line2d_13">
    <path clip-path="url(#pbdb3063527)" style="fill: none; stroke: #424242; stroke-width: 2.25; stroke-linecap: square"/>
   </g>
   <g id="line2d_14">
    <path clip-path="url(#pbdb3063527)" style="fill: none; stroke: #424242; stroke-width: 2.25; stroke-linecap: square"/>
   </g>
   <g id="patch_7">
    <path d="M 57.000622 173.32 
L 57.000622 24.72 
" style="fill: none; stroke: #000000; stroke-width: 0.8; stroke-linejoin: miter; stroke-linecap: square"/>
   </g>
   <g id="patch_8">
    <path d="M 57.000622 173.32 
L 217.081062 173.32 
" style="fill: none; stroke: #000000; stroke-width: 0.8; stroke-linejoin: miter; stroke-linecap: square"/>
   </g>
   <g id="text_13">
    <!-- condition = sibs -->
    <g transform="translate(96.782248 18.72) scale(0.1 -0.1)">
     <defs>
      <path id="DejaVuSans-63" d="M 3122 3366 
L 3122 2828 
Q 2878 2963 2633 3030 
Q 2388 3097 2138 3097 
Q 1578 3097 1268 2742 
Q 959 2388 959 1747 
Q 959 1106 1268 751 
Q 1578 397 2138 397 
Q 2388 397 2633 464 
Q 2878 531 3122 666 
L 3122 134 
Q 2881 22 2623 -34 
Q 2366 -91 2075 -91 
Q 1284 -91 818 406 
Q 353 903 353 1747 
Q 353 2603 823 3093 
Q 1294 3584 2113 3584 
Q 2378 3584 2631 3529 
Q 2884 3475 3122 3366 
z
" transform="scale(0.015625)"/>
      <path id="DejaVuSans-6f" d="M 1959 3097 
Q 1497 3097 1228 2736 
Q 959 2375 959 1747 
Q 959 1119 1226 758 
Q 1494 397 1959 397 
Q 2419 397 2687 759 
Q 2956 1122 2956 1747 
Q 2956 2369 2687 2733 
Q 2419 3097 1959 3097 
z
M 1959 3584 
Q 2709 3584 3137 3096 
Q 3566 2609 3566 1747 
Q 3566 888 3137 398 
Q 2709 -91 1959 -91 
Q 1206 -91 779 398 
Q 353 888 353 1747 
Q 353 2609 779 3096 
Q 1206 3584 1959 3584 
z
" transform="scale(0.015625)"/>
      <path id="DejaVuSans-6e" d="M 3513 2113 
L 3513 0 
L 2938 0 
L 2938 2094 
Q 2938 2591 2744 2837 
Q 2550 3084 2163 3084 
Q 1697 3084 1428 2787 
Q 1159 2491 1159 1978 
L 1159 0 
L 581 0 
L 581 3500 
L 1159 3500 
L 1159 2956 
Q 1366 3272 1645 3428 
Q 1925 3584 2291 3584 
Q 2894 3584 3203 3211 
Q 3513 2838 3513 2113 
z
" transform="scale(0.015625)"/>
      <path id="DejaVuSans-64" d="M 2906 2969 
L 2906 4863 
L 3481 4863 
L 3481 0 
L 2906 0 
L 2906 525 
Q 2725 213 2448 61 
Q 2172 -91 1784 -91 
Q 1150 -91 751 415 
Q 353 922 353 1747 
Q 353 2572 751 3078 
Q 1150 3584 1784 3584 
Q 2172 3584 2448 3432 
Q 2725 3281 2906 2969 
z
M 947 1747 
Q 947 1113 1208 752 
Q 1469 391 1925 391 
Q 2381 391 2643 752 
Q 2906 1113 2906 1747 
Q 2906 2381 2643 2742 
Q 2381 3103 1925 3103 
Q 1469 3103 1208 2742 
Q 947 2381 947 1747 
z
" transform="scale(0.015625)"/>
      <path id="DejaVuSans-3d" d="M 678 2906 
L 4684 2906 
L 4684 2381 
L 678 2381 
L 678 2906 
z
M 678 1631 
L 4684 1631 
L 4684 1100 
L 678 1100 
L 678 1631 
z
" transform="scale(0.015625)"/>
      <path id="DejaVuSans-73" d="M 2834 3397 
L 2834 2853 
Q 2591 2978 2328 3040 
Q 2066 3103 1784 3103 
Q 1356 3103 1142 2972 
Q 928 2841 928 2578 
Q 928 2378 1081 2264 
Q 1234 2150 1697 2047 
L 1894 2003 
Q 2506 1872 2764 1633 
Q 3022 1394 3022 966 
Q 3022 478 2636 193 
Q 2250 -91 1575 -91 
Q 1294 -91 989 -36 
Q 684 19 347 128 
L 347 722 
Q 666 556 975 473 
Q 1284 391 1588 391 
Q 1994 391 2212 530 
Q 2431 669 2431 922 
Q 2431 1156 2273 1281 
Q 2116 1406 1581 1522 
L 1381 1569 
Q 847 1681 609 1914 
Q 372 2147 372 2553 
Q 372 3047 722 3315 
Q 1072 3584 1716 3584 
Q 2034 3584 2315 3537 
Q 2597 3491 2834 3397 
z
" transform="scale(0.015625)"/>
      <path id="DejaVuSans-62" d="M 3116 1747 
Q 3116 2381 2855 2742 
Q 2594 3103 2138 3103 
Q 1681 3103 1420 2742 
Q 1159 2381 1159 1747 
Q 1159 1113 1420 752 
Q 1681 391 2138 391 
Q 2594 391 2855 752 
Q 3116 1113 3116 1747 
z
M 1159 2969 
Q 1341 3281 1617 3432 
Q 1894 3584 2278 3584 
Q 2916 3584 3314 3078 
Q 3713 2572 3713 1747 
Q 3713 922 3314 415 
Q 2916 -91 2278 -91 
Q 1894 -91 1617 61 
Q 1341 213 1159 525 
L 1159 0 
L 581 0 
L 581 4863 
L 1159 4863 
L 1159 2969 
z
" transform="scale(0.015625)"/>
     </defs>
     <use xlink:href="#DejaVuSans-63"/>
     <use xlink:href="#DejaVuSans-6f" x="54.980469"/>
     <use xlink:href="#DejaVuSans-6e" x="116.162109"/>
     <use xlink:href="#DejaVuSans-64" x="179.541016"/>
     <use xlink:href="#DejaVuSans-69" x="243.017578"/>
     <use xlink:href="#DejaVuSans-74" x="270.800781"/>
     <use xlink:href="#DejaVuSans-69" x="310.009766"/>
     <use xlink:href="#DejaVuSans-6f" x="337.792969"/>
     <use xlink:href="#DejaVuSans-6e" x="398.974609"/>
     <use xlink:href="#DejaVuSans-20" x="462.353516"/>
     <use xlink:href="#DejaVuSans-3d" x="494.140625"/>
     <use xlink:href="#DejaVuSans-20" x="577.929688"/>
     <use xlink:href="#DejaVuSans-73" x="609.716797"/>
     <use xlink:href="#DejaVuSans-69" x="661.816406"/>
     <use xlink:href="#DejaVuSans-62" x="689.599609"/>
     <use xlink:href="#DejaVuSans-73" x="753.076172"/>
    </g>
   </g>
  </g>
  <g id="axes_2">
   <g id="patch_9">
    <path d="M 268.506469 173.32 
L 428.586909 173.32 
L 428.586909 24.72 
L 268.506469 24.72 
z
" style="fill: #ffffff"/>
   </g>
   <g id="patch_10">
    <path d="M 348.48789 173.32 
L 348.605488 173.32 
L 348.605488 -1312.68 
L 348.48789 -1312.68 
z
" clip-path="url(#p04f872579f)" style="fill: #3274a1"/>
   </g>
   <g id="patch_11">
    <path d="M 348.634888 173.32 
L 348.752486 173.32 
L 348.752486 -1238.38 
L 348.634888 -1238.38 
z
" clip-path="url(#p04f872579f)" style="fill: #3274a1"/>
   </g>
   <g id="patch_12">
    <path d="M 348.781885 173.32 
L 348.899483 173.32 
L 348.899483 -1213.613333 
L 348.781885 -1213.613333 
z
" clip-path="url(#p04f872579f)" style="fill: #3274a1"/>
   </g>
   <g id="patch_13">
    <path d="M 348.928883 173.32 
L 349.046481 173.32 
L 349.046481 -1312.68 
L 348.928883 -1312.68 
z
" clip-path="url(#p04f872579f)" style="fill: #3274a1"/>
   </g>
   <g id="patch_14">
    <path d="M 348.48789 173.32 
L 348.605488 173.32 
L 348.605488 173.32 
L 348.48789 173.32 
z
" clip-path="url(#p04f872579f)" style="fill: #e1812c"/>
   </g>
   <g id="patch_15">
    <path d="M 348.634888 173.32 
L 348.752486 173.32 
L 348.752486 99.02 
L 348.634888 99.02 
z
" clip-path="url(#p04f872579f)" style="fill: #e1812c"/>
   </g>
   <g id="patch_16">
    <path d="M 348.781885 173.32 
L 348.899483 173.32 
L 348.899483 74.253333 
L 348.781885 74.253333 
z
" clip-path="url(#p04f872579f)" style="fill: #e1812c"/>
   </g>
   <g id="patch_17">
    <path d="M 348.928883 173.32 
L 349.046481 173.32 
L 349.046481 173.32 
L 348.928883 173.32 
z
" clip-path="url(#p04f872579f)" style="fill: #e1812c"/>
   </g>
   <g id="PolyCollection_1">
    <defs>
     <path id="m5842cdb828" d="M 275.782853 -44.369255 
L 275.782853 -43.661922 
L 277.252829 -43.459169 
L 278.722806 -43.869127 
L 280.192782 -43.971342 
L 281.662759 -44.291652 
L 283.132735 -44.527904 
L 284.602712 -44.543651 
L 286.072688 -43.127391 
L 287.542665 -44.823908 
L 289.012641 -44.304411 
L 290.482618 -43.329567 
L 291.952594 -43.925977 
L 293.422571 -45.202282 
L 294.892547 -44.409925 
L 296.362524 -46.158195 
L 297.8325 -44.069573 
L 299.302477 -44.63812 
L 300.772453 -44.901499 
L 302.24243 -44.926218 
L 303.712406 -44.410066 
L 305.182383 -44.525712 
L 306.652359 -44.144578 
L 308.122336 -44.693675 
L 309.592312 -44.241538 
L 311.062289 -43.479588 
L 312.532265 -43.208789 
L 314.002242 -44.802176 
L 315.472218 -45.348061 
L 316.942195 -44.487845 
L 318.412171 -44.874897 
L 319.882148 -45.311783 
L 321.352124 -44.82607 
L 322.822101 -44.912846 
L 324.292077 -44.09699 
L 325.762053 -44.032389 
L 327.23203 -45.235994 
L 328.702006 -47.95056 
L 330.171983 -44.85886 
L 331.641959 -44.848155 
L 333.111936 -45.211719 
L 334.581912 -45.014315 
L 336.051889 -45.046688 
L 337.521865 -45.232328 
L 338.991842 -45.534389 
L 340.461818 -44.853838 
L 341.931795 -44.251171 
L 343.401771 -44.003634 
L 344.871748 -44.213462 
L 346.341724 -44.630743 
L 347.811701 -43.206468 
L 349.281677 -45.473176 
L 350.751654 -44.928388 
L 352.22163 -44.401625 
L 353.691607 -44.057147 
L 355.161583 -46.174768 
L 356.63156 -44.125853 
L 358.101536 -46.425617 
L 359.571513 -44.761347 
L 361.041489 -45.181567 
L 362.511466 -43.474532 
L 363.981442 -44.037409 
L 365.451419 -44.508334 
L 366.921395 -44.442316 
L 368.391372 -43.811107 
L 369.861348 -43.678733 
L 371.331325 -43.805232 
L 372.801301 -43.892265 
L 374.271278 -43.420543 
L 375.741254 -43.904443 
L 377.21123 -43.942767 
L 378.681207 -44.526645 
L 380.151183 -44.993258 
L 381.62116 -44.063008 
L 383.091136 -43.971212 
L 384.561113 -43.814022 
L 386.031089 -44.089995 
L 387.501066 -43.486955 
L 388.971042 -43.684007 
L 390.441019 -43.717949 
L 391.910995 -43.950423 
L 393.380972 -44.493279 
L 394.850948 -44.548045 
L 396.320925 -44.030233 
L 397.790901 -45.002541 
L 399.260878 -44.182191 
L 400.730854 -43.384479 
L 402.200831 -44.821805 
L 403.670807 -43.982971 
L 405.140784 -43.377527 
L 406.61076 -43.276952 
L 408.080737 -44.475365 
L 409.550713 -44.531659 
L 411.02069 -44.567276 
L 412.490666 -43.902826 
L 413.960643 -44.390008 
L 415.430619 -44.367703 
L 416.900596 -44.247696 
L 418.370572 -43.623873 
L 419.840549 -44.56964 
L 421.310525 -45.020744 
L 421.310525 -46.931301 
L 421.310525 -46.931301 
L 419.840549 -46.262438 
L 418.370572 -44.365902 
L 416.900596 -45.934177 
L 415.430619 -46.410534 
L 413.960643 -57.968293 
L 412.490666 -64.77095 
L 411.02069 -79.310144 
L 409.550713 -75.142227 
L 408.080737 -79.470964 
L 406.61076 -91.324031 
L 405.140784 -78.70376 
L 403.670807 -133.593418 
L 402.200831 -65.319612 
L 400.730854 -46.113136 
L 399.260878 -46.601911 
L 397.790901 -45.749124 
L 396.320925 -47.706912 
L 394.850948 -47.853242 
L 393.380972 -44.763613 
L 391.910995 -45.11335 
L 390.441019 -44.479148 
L 388.971042 -44.449299 
L 387.501066 -43.821172 
L 386.031089 -44.596641 
L 384.561113 -44.152333 
L 383.091136 -44.140178 
L 381.62116 -44.663605 
L 380.151183 -45.059946 
L 378.681207 -46.262411 
L 377.21123 -44.801921 
L 375.741254 -44.410149 
L 374.271278 -43.609448 
L 372.801301 -44.076314 
L 371.331325 -46.188532 
L 369.861348 -49.667275 
L 368.391372 -48.069413 
L 366.921395 -47.722189 
L 365.451419 -45.984155 
L 363.981442 -47.14658 
L 362.511466 -47.782447 
L 361.041489 -46.036805 
L 359.571513 -47.357623 
L 358.101536 -51.775668 
L 356.63156 -45.851574 
L 355.161583 -47.814874 
L 353.691607 -47.846427 
L 352.22163 -46.810198 
L 350.751654 -45.161196 
L 349.281677 -47.563096 
L 347.811701 -45.045061 
L 346.341724 -46.157627 
L 344.871748 -46.101462 
L 343.401771 -46.275774 
L 341.931795 -45.965597 
L 340.461818 -45.045003 
L 338.991842 -45.553401 
L 337.521865 -46.346415 
L 336.051889 -46.134968 
L 334.581912 -45.450182 
L 333.111936 -46.680192 
L 331.641959 -45.565922 
L 330.171983 -46.797541 
L 328.702006 -48.497618 
L 327.23203 -45.285023 
L 325.762053 -47.657619 
L 324.292077 -44.38427 
L 322.822101 -47.231043 
L 321.352124 -46.262142 
L 319.882148 -46.431109 
L 318.412171 -44.954233 
L 316.942195 -45.758152 
L 315.472218 -47.954174 
L 314.002242 -45.008976 
L 312.532265 -44.241783 
L 311.062289 -43.845326 
L 309.592312 -44.46524 
L 308.122336 -49.077624 
L 306.652359 -49.98343 
L 305.182383 -71.014572 
L 303.712406 -67.963176 
L 302.24243 -66.888115 
L 300.772453 -96.809311 
L 299.302477 -78.559078 
L 297.8325 -80.775928 
L 296.362524 -115.119541 
L 294.892547 -170.058392 
L 293.422571 -78.806437 
L 291.952594 -45.075008 
L 290.482618 -44.630869 
L 289.012641 -44.851474 
L 287.542665 -45.300215 
L 286.072688 -44.778788 
L 284.602712 -45.650433 
L 283.132735 -45.280163 
L 281.662759 -46.405614 
L 280.192782 -45.055217 
L 278.722806 -44.432737 
L 277.252829 -43.720577 
L 275.782853 -44.369255 
z
" style="stroke: #1f77b4; stroke-opacity: 0.2"/>
    </defs>
    <g clip-path="url(#p04f872579f)">
     <use xlink:href="#m5842cdb828" x="0" y="216" style="fill: #1f77b4; fill-opacity: 0.2; stroke: #1f77b4; stroke-opacity: 0.2"/>
    </g>
   </g>
   <g id="PolyCollection_2">
    <defs>
     <path id="mee2fb2825e" d="M 275.782853 -46.016498 
L 275.782853 -45.830287 
L 277.252829 -46.376702 
L 278.722806 -43.625037 
L 280.192782 -44.78315 
L 281.662759 -44.077369 
L 283.132735 -44.428731 
L 284.602712 -46.209262 
L 286.072688 -46.292863 
L 287.542665 -45.178707 
L 289.012641 -48.316468 
L 290.482618 -47.962359 
L 291.952594 -47.815693 
L 293.422571 -45.964519 
L 294.892547 -45.30015 
L 296.362524 -46.600573 
L 297.8325 -47.386019 
L 299.302477 -48.63747 
L 300.772453 -45.540834 
L 302.24243 -45.895476 
L 303.712406 -44.64165 
L 305.182383 -44.616641 
L 306.652359 -44.041665 
L 308.122336 -44.409535 
L 309.592312 -46.446588 
L 311.062289 -44.936759 
L 312.532265 -46.244525 
L 314.002242 -45.519016 
L 315.472218 -47.175812 
L 316.942195 -45.276802 
L 318.412171 -45.073168 
L 319.882148 -45.19569 
L 321.352124 -46.395884 
L 322.822101 -47.327206 
L 324.292077 -46.831131 
L 325.762053 -46.203633 
L 327.23203 -44.677756 
L 328.702006 -45.285934 
L 330.171983 -45.605581 
L 331.641959 -47.102539 
L 333.111936 -45.280969 
L 334.581912 -47.027177 
L 336.051889 -45.66936 
L 337.521865 -45.208891 
L 338.991842 -46.280759 
L 340.461818 -45.111462 
L 341.931795 -46.27756 
L 343.401771 -45.778624 
L 344.871748 -44.930191 
L 346.341724 -45.723082 
L 347.811701 -44.585766 
L 349.281677 -44.958458 
L 350.751654 -43.49322 
L 352.22163 -43.57245 
L 353.691607 -46.618562 
L 355.161583 -46.568082 
L 356.63156 -45.656735 
L 358.101536 -46.609474 
L 359.571513 -45.446311 
L 361.041489 -45.816659 
L 362.511466 -45.536467 
L 363.981442 -46.87232 
L 365.451419 -46.434596 
L 366.921395 -47.000569 
L 368.391372 -47.435354 
L 369.861348 -47.26158 
L 371.331325 -45.102711 
L 372.801301 -47.660407 
L 374.271278 -46.498151 
L 375.741254 -46.601381 
L 377.21123 -45.240696 
L 378.681207 -46.374185 
L 380.151183 -45.764875 
L 381.62116 -45.635209 
L 383.091136 -45.870337 
L 384.561113 -44.84369 
L 386.031089 -45.120493 
L 387.501066 -44.088557 
L 388.971042 -43.846599 
L 390.441019 -44.909362 
L 391.910995 -44.607704 
L 393.380972 -44.935335 
L 394.850948 -44.914977 
L 396.320925 -43.750374 
L 397.790901 -43.90522 
L 399.260878 -43.899997 
L 400.730854 -45.0621 
L 402.200831 -44.533659 
L 403.670807 -44.25693 
L 405.140784 -44.897982 
L 406.61076 -44.861739 
L 408.080737 -44.891507 
L 409.550713 -44.84256 
L 411.02069 -44.529443 
L 412.490666 -45.737988 
L 413.960643 -44.420528 
L 415.430619 -44.039234 
L 416.900596 -44.152531 
L 418.370572 -45.090428 
L 419.840549 -43.967543 
L 421.310525 -46.868233 
L 421.310525 -71.610103 
L 421.310525 -71.610103 
L 419.840549 -57.122935 
L 418.370572 -52.028344 
L 416.900596 -45.086075 
L 415.430619 -45.261645 
L 413.960643 -45.106175 
L 412.490666 -45.84245 
L 411.02069 -45.45411 
L 409.550713 -45.656091 
L 408.080737 -46.487268 
L 406.61076 -45.6362 
L 405.140784 -46.318722 
L 403.670807 -44.715284 
L 402.200831 -45.334529 
L 400.730854 -47.461068 
L 399.260878 -45.454787 
L 397.790901 -45.500634 
L 396.320925 -52.734326 
L 394.850948 -45.392999 
L 393.380972 -45.41585 
L 391.910995 -45.253899 
L 390.441019 -45.242387 
L 388.971042 -46.348148 
L 387.501066 -46.62775 
L 386.031089 -45.18601 
L 384.561113 -45.159132 
L 383.091136 -46.69635 
L 381.62116 -45.900039 
L 380.151183 -46.176335 
L 378.681207 -46.378876 
L 377.21123 -46.248731 
L 375.741254 -50.845395 
L 374.271278 -49.248031 
L 372.801301 -49.073076 
L 371.331325 -45.768197 
L 369.861348 -74.867218 
L 368.391372 -64.284326 
L 366.921395 -69.233738 
L 365.451419 -58.546321 
L 363.981442 -59.967643 
L 362.511466 -67.453503 
L 361.041489 -60.514933 
L 359.571513 -49.852575 
L 358.101536 -47.490179 
L 356.63156 -49.603653 
L 355.161583 -47.446548 
L 353.691607 -50.036714 
L 352.22163 -45.461647 
L 350.751654 -46.089479 
L 349.281677 -46.273413 
L 347.811701 -46.474693 
L 346.341724 -49.356158 
L 344.871748 -46.305257 
L 343.401771 -46.40458 
L 341.931795 -47.65647 
L 340.461818 -46.634395 
L 338.991842 -46.926199 
L 337.521865 -45.751127 
L 336.051889 -46.282025 
L 334.581912 -48.098358 
L 333.111936 -48.361034 
L 331.641959 -49.341286 
L 330.171983 -59.79085 
L 328.702006 -58.807765 
L 327.23203 -52.098715 
L 325.762053 -52.107563 
L 324.292077 -52.943486 
L 322.822101 -49.216146 
L 321.352124 -46.490451 
L 319.882148 -45.826589 
L 318.412171 -47.848987 
L 316.942195 -47.049144 
L 315.472218 -47.926539 
L 314.002242 -51.581041 
L 312.532265 -48.209217 
L 311.062289 -45.805835 
L 309.592312 -48.483598 
L 308.122336 -46.636347 
L 306.652359 -46.196071 
L 305.182383 -44.846201 
L 303.712406 -47.849219 
L 302.24243 -46.313524 
L 300.772453 -49.71912 
L 299.302477 -48.737952 
L 297.8325 -49.068958 
L 296.362524 -47.077381 
L 294.892547 -50.09936 
L 293.422571 -49.063299 
L 291.952594 -47.873932 
L 290.482618 -48.341993 
L 289.012641 -48.558552 
L 287.542665 -45.574863 
L 286.072688 -46.475051 
L 284.602712 -46.531708 
L 283.132735 -45.406277 
L 281.662759 -44.177025 
L 280.192782 -46.315392 
L 278.722806 -44.80796 
L 277.252829 -46.626304 
L 275.782853 -46.016498 
z
" style="stroke: #ff7f0e; stroke-opacity: 0.2"/>
    </defs>
    <g clip-path="url(#p04f872579f)">
     <use xlink:href="#mee2fb2825e" x="0" y="216" style="fill: #ff7f0e; fill-opacity: 0.2; stroke: #ff7f0e; stroke-opacity: 0.2"/>
    </g>
   </g>
   <g id="matplotlib.axis_3">
    <g id="xtick_5">
     <g id="line2d_15">
      <g>
       <use xlink:href="#mfb4b0842ff" x="348.546689" y="173.32" style="stroke: #000000; stroke-width: 0.8"/>
      </g>
     </g>
     <g id="text_14">
      <!-- 240304_f0trial1 -->
      <g transform="translate(308.97872 187.918438) scale(0.1 -0.1)">
       <use xlink:href="#DejaVuSans-32"/>
       <use xlink:href="#DejaVuSans-34" x="63.623047"/>
       <use xlink:href="#DejaVuSans-30" x="127.246094"/>
       <use xlink:href="#DejaVuSans-33" x="190.869141"/>
       <use xlink:href="#DejaVuSans-30" x="254.492188"/>
       <use xlink:href="#DejaVuSans-34" x="318.115234"/>
       <use xlink:href="#DejaVuSans-5f" x="381.738281"/>
       <use xlink:href="#DejaVuSans-66" x="431.738281"/>
       <use xlink:href="#DejaVuSans-30" x="466.943359"/>
       <use xlink:href="#DejaVuSans-74" x="530.566406"/>
       <use xlink:href="#DejaVuSans-72" x="569.775391"/>
       <use xlink:href="#DejaVuSans-69" x="610.888672"/>
       <use xlink:href="#DejaVuSans-61" x="638.671875"/>
       <use xlink:href="#DejaVuSans-6c" x="699.951172"/>
       <use xlink:href="#DejaVuSans-31" x="727.734375"/>
      </g>
     </g>
    </g>
    <g id="xtick_6">
     <g id="line2d_16">
      <g>
       <use xlink:href="#mfb4b0842ff" x="348.693687" y="173.32" style="stroke: #000000; stroke-width: 0.8"/>
      </g>
     </g>
     <g id="text_15">
      <!-- 240304_f0trial2 -->
      <g transform="translate(309.125718 187.918438) scale(0.1 -0.1)">
       <use xlink:href="#DejaVuSans-32"/>
       <use xlink:href="#DejaVuSans-34" x="63.623047"/>
       <use xlink:href="#DejaVuSans-30" x="127.246094"/>
       <use xlink:href="#DejaVuSans-33" x="190.869141"/>
       <use xlink:href="#DejaVuSans-30" x="254.492188"/>
       <use xlink:href="#DejaVuSans-34" x="318.115234"/>
       <use xlink:href="#DejaVuSans-5f" x="381.738281"/>
       <use xlink:href="#DejaVuSans-66" x="431.738281"/>
       <use xlink:href="#DejaVuSans-30" x="466.943359"/>
       <use xlink:href="#DejaVuSans-74" x="530.566406"/>
       <use xlink:href="#DejaVuSans-72" x="569.775391"/>
       <use xlink:href="#DejaVuSans-69" x="610.888672"/>
       <use xlink:href="#DejaVuSans-61" x="638.671875"/>
       <use xlink:href="#DejaVuSans-6c" x="699.951172"/>
       <use xlink:href="#DejaVuSans-32" x="727.734375"/>
      </g>
     </g>
    </g>
    <g id="xtick_7">
     <g id="line2d_17">
      <g>
       <use xlink:href="#mfb4b0842ff" x="348.840684" y="173.32" style="stroke: #000000; stroke-width: 0.8"/>
      </g>
     </g>
     <g id="text_16">
      <!-- 240304_f0trial3 -->
      <g transform="translate(309.272716 187.918438) scale(0.1 -0.1)">
       <use xlink:href="#DejaVuSans-32"/>
       <use xlink:href="#DejaVuSans-34" x="63.623047"/>
       <use xlink:href="#DejaVuSans-30" x="127.246094"/>
       <use xlink:href="#DejaVuSans-33" x="190.869141"/>
       <use xlink:href="#DejaVuSans-30" x="254.492188"/>
       <use xlink:href="#DejaVuSans-34" x="318.115234"/>
       <use xlink:href="#DejaVuSans-5f" x="381.738281"/>
       <use xlink:href="#DejaVuSans-66" x="431.738281"/>
       <use xlink:href="#DejaVuSans-30" x="466.943359"/>
       <use xlink:href="#DejaVuSans-74" x="530.566406"/>
       <use xlink:href="#DejaVuSans-72" x="569.775391"/>
       <use xlink:href="#DejaVuSans-69" x="610.888672"/>
       <use xlink:href="#DejaVuSans-61" x="638.671875"/>
       <use xlink:href="#DejaVuSans-6c" x="699.951172"/>
       <use xlink:href="#DejaVuSans-33" x="727.734375"/>
      </g>
     </g>
    </g>
    <g id="xtick_8">
     <g id="line2d_18">
      <g>
       <use xlink:href="#mfb4b0842ff" x="348.987682" y="173.32" style="stroke: #000000; stroke-width: 0.8"/>
      </g>
     </g>
     <g id="text_17">
      <!-- 240304_f0trial4 -->
      <g transform="translate(309.419713 187.918438) scale(0.1 -0.1)">
       <use xlink:href="#DejaVuSans-32"/>
       <use xlink:href="#DejaVuSans-34" x="63.623047"/>
       <use xlink:href="#DejaVuSans-30" x="127.246094"/>
       <use xlink:href="#DejaVuSans-33" x="190.869141"/>
       <use xlink:href="#DejaVuSans-30" x="254.492188"/>
       <use xlink:href="#DejaVuSans-34" x="318.115234"/>
       <use xlink:href="#DejaVuSans-5f" x="381.738281"/>
       <use xlink:href="#DejaVuSans-66" x="431.738281"/>
       <use xlink:href="#DejaVuSans-30" x="466.943359"/>
       <use xlink:href="#DejaVuSans-74" x="530.566406"/>
       <use xlink:href="#DejaVuSans-72" x="569.775391"/>
       <use xlink:href="#DejaVuSans-69" x="610.888672"/>
       <use xlink:href="#DejaVuSans-61" x="638.671875"/>
       <use xlink:href="#DejaVuSans-6c" x="699.951172"/>
       <use xlink:href="#DejaVuSans-34" x="727.734375"/>
      </g>
     </g>
    </g>
    <g id="text_18">
     <!-- Trial ID -->
     <g transform="translate(331.418564 201.874688) scale(0.1 -0.1)">
      <use xlink:href="#DejaVuSans-54"/>
      <use xlink:href="#DejaVuSans-72" x="46.333984"/>
      <use xlink:href="#DejaVuSans-69" x="87.447266"/>
      <use xlink:href="#DejaVuSans-61" x="115.230469"/>
      <use xlink:href="#DejaVuSans-6c" x="176.509766"/>
      <use xlink:href="#DejaVuSans-20" x="204.292969"/>
      <use xlink:href="#DejaVuSans-49" x="236.080078"/>
      <use xlink:href="#DejaVuSans-44" x="265.572266"/>
     </g>
    </g>
   </g>
   <g id="matplotlib.axis_4">
    <g id="ytick_7">
     <g id="line2d_19">
      <g>
       <use xlink:href="#m3437a2fe9e" x="268.506469" y="173.32" style="stroke: #000000; stroke-width: 0.8"/>
      </g>
     </g>
     <g id="text_19">
      <!-- 0.00 -->
      <g transform="translate(239.240844 177.119219) scale(0.1 -0.1)">
       <use xlink:href="#DejaVuSans-30"/>
       <use xlink:href="#DejaVuSans-2e" x="63.623047"/>
       <use xlink:href="#DejaVuSans-30" x="95.410156"/>
       <use xlink:href="#DejaVuSans-30" x="159.033203"/>
      </g>
     </g>
    </g>
    <g id="ytick_8">
     <g id="line2d_20">
      <g>
       <use xlink:href="#m3437a2fe9e" x="268.506469" y="143.6" style="stroke: #000000; stroke-width: 0.8"/>
      </g>
     </g>
     <g id="text_20">
      <!-- 0.02 -->
      <g transform="translate(239.240844 147.399219) scale(0.1 -0.1)">
       <use xlink:href="#DejaVuSans-30"/>
       <use xlink:href="#DejaVuSans-2e" x="63.623047"/>
       <use xlink:href="#DejaVuSans-30" x="95.410156"/>
       <use xlink:href="#DejaVuSans-32" x="159.033203"/>
      </g>
     </g>
    </g>
    <g id="ytick_9">
     <g id="line2d_21">
      <g>
       <use xlink:href="#m3437a2fe9e" x="268.506469" y="113.88" style="stroke: #000000; stroke-width: 0.8"/>
      </g>
     </g>
     <g id="text_21">
      <!-- 0.04 -->
      <g transform="translate(239.240844 117.679219) scale(0.1 -0.1)">
       <use xlink:href="#DejaVuSans-30"/>
       <use xlink:href="#DejaVuSans-2e" x="63.623047"/>
       <use xlink:href="#DejaVuSans-30" x="95.410156"/>
       <use xlink:href="#DejaVuSans-34" x="159.033203"/>
      </g>
     </g>
    </g>
    <g id="ytick_10">
     <g id="line2d_22">
      <g>
       <use xlink:href="#m3437a2fe9e" x="268.506469" y="84.16" style="stroke: #000000; stroke-width: 0.8"/>
      </g>
     </g>
     <g id="text_22">
      <!-- 0.06 -->
      <g transform="translate(239.240844 87.959219) scale(0.1 -0.1)">
       <use xlink:href="#DejaVuSans-30"/>
       <use xlink:href="#DejaVuSans-2e" x="63.623047"/>
       <use xlink:href="#DejaVuSans-30" x="95.410156"/>
       <use xlink:href="#DejaVuSans-36" x="159.033203"/>
      </g>
     </g>
    </g>
    <g id="ytick_11">
     <g id="line2d_23">
      <g>
       <use xlink:href="#m3437a2fe9e" x="268.506469" y="54.44" style="stroke: #000000; stroke-width: 0.8"/>
      </g>
     </g>
     <g id="text_23">
      <!-- 0.08 -->
      <g transform="translate(239.240844 58.239219) scale(0.1 -0.1)">
       <use xlink:href="#DejaVuSans-30"/>
       <use xlink:href="#DejaVuSans-2e" x="63.623047"/>
       <use xlink:href="#DejaVuSans-30" x="95.410156"/>
       <use xlink:href="#DejaVuSans-38" x="159.033203"/>
      </g>
     </g>
    </g>
    <g id="ytick_12">
     <g id="line2d_24">
      <g>
       <use xlink:href="#m3437a2fe9e" x="268.506469" y="24.72" style="stroke: #000000; stroke-width: 0.8"/>
      </g>
     </g>
     <g id="text_24">
      <!-- 0.10 -->
      <g transform="translate(239.240844 28.519219) scale(0.1 -0.1)">
       <use xlink:href="#DejaVuSans-30"/>
       <use xlink:href="#DejaVuSans-2e" x="63.623047"/>
       <use xlink:href="#DejaVuSans-31" x="95.410156"/>
       <use xlink:href="#DejaVuSans-30" x="159.033203"/>
      </g>
     </g>
    </g>
    <g id="text_25">
     <!-- absvtheta -->
     <g transform="translate(233.161157 124.052031) rotate(-90) scale(0.1 -0.1)">
      <defs>
       <path id="DejaVuSans-76" d="M 191 3500 
L 800 3500 
L 1894 563 
L 2988 3500 
L 3597 3500 
L 2284 0 
L 1503 0 
L 191 3500 
z
" transform="scale(0.015625)"/>
       <path id="DejaVuSans-68" d="M 3513 2113 
L 3513 0 
L 2938 0 
L 2938 2094 
Q 2938 2591 2744 2837 
Q 2550 3084 2163 3084 
Q 1697 3084 1428 2787 
Q 1159 2491 1159 1978 
L 1159 0 
L 581 0 
L 581 4863 
L 1159 4863 
L 1159 2956 
Q 1366 3272 1645 3428 
Q 1925 3584 2291 3584 
Q 2894 3584 3203 3211 
Q 3513 2838 3513 2113 
z
" transform="scale(0.015625)"/>
      </defs>
      <use xlink:href="#DejaVuSans-61"/>
      <use xlink:href="#DejaVuSans-62" x="61.279297"/>
      <use xlink:href="#DejaVuSans-73" x="124.755859"/>
      <use xlink:href="#DejaVuSans-76" x="176.855469"/>
      <use xlink:href="#DejaVuSans-74" x="236.035156"/>
      <use xlink:href="#DejaVuSans-68" x="275.244141"/>
      <use xlink:href="#DejaVuSans-65" x="338.623047"/>
      <use xlink:href="#DejaVuSans-74" x="400.146484"/>
      <use xlink:href="#DejaVuSans-61" x="439.355469"/>
     </g>
    </g>
   </g>
   <g id="line2d_25">
    <path clip-path="url(#p04f872579f)" style="fill: none; stroke: #424242; stroke-width: 2.25; stroke-linecap: square"/>
   </g>
   <g id="line2d_26">
    <path clip-path="url(#p04f872579f)" style="fill: none; stroke: #424242; stroke-width: 2.25; stroke-linecap: square"/>
   </g>
   <g id="line2d_27">
    <path clip-path="url(#p04f872579f)" style="fill: none; stroke: #424242; stroke-width: 2.25; stroke-linecap: square"/>
   </g>
   <g id="line2d_28">
    <path clip-path="url(#p04f872579f)" style="fill: none; stroke: #424242; stroke-width: 2.25; stroke-linecap: square"/>
   </g>
   <g id="line2d_29">
    <path clip-path="url(#p04f872579f)" style="fill: none; stroke: #424242; stroke-width: 2.25; stroke-linecap: square"/>
   </g>
   <g id="line2d_30">
    <path clip-path="url(#p04f872579f)" style="fill: none; stroke: #424242; stroke-width: 2.25; stroke-linecap: square"/>
   </g>
   <g id="line2d_31">
    <path clip-path="url(#p04f872579f)" style="fill: none; stroke: #424242; stroke-width: 2.25; stroke-linecap: square"/>
   </g>
   <g id="line2d_32">
    <path clip-path="url(#p04f872579f)" style="fill: none; stroke: #424242; stroke-width: 2.25; stroke-linecap: square"/>
   </g>
   <g id="line2d_33">
    <path d="M 275.782853 171.984411 
L 277.252829 172.410127 
L 278.722806 171.849068 
L 280.192782 171.48672 
L 281.662759 170.651367 
L 283.132735 171.095966 
L 284.602712 170.902958 
L 286.072688 172.04691 
L 287.542665 170.937938 
L 289.012641 171.422058 
L 290.482618 172.019782 
L 291.952594 171.499508 
L 293.422571 153.995641 
L 294.892547 108.765841 
L 296.362524 135.361132 
L 297.8325 153.577249 
L 299.302477 154.401401 
L 300.772453 145.144595 
L 302.24243 160.092833 
L 303.712406 159.813379 
L 305.182383 158.229858 
L 306.652359 168.935996 
L 308.122336 169.114351 
L 309.592312 171.646611 
L 311.062289 172.337543 
L 312.532265 172.274714 
L 314.002242 171.094424 
L 315.472218 169.348883 
L 316.942195 170.877001 
L 318.412171 171.085435 
L 319.882148 170.128554 
L 321.352124 170.455894 
L 322.822101 169.928055 
L 324.292077 171.75937 
L 325.762053 170.154996 
L 327.23203 170.739492 
L 328.702006 167.775911 
L 330.171983 170.171799 
L 331.641959 170.792962 
L 333.111936 170.054044 
L 334.581912 170.767752 
L 336.051889 170.409172 
L 337.521865 170.210628 
L 338.991842 170.456105 
L 340.461818 171.05058 
L 341.931795 170.891616 
L 343.401771 170.860296 
L 344.871748 170.842538 
L 346.341724 170.605815 
L 347.811701 171.874236 
L 349.281677 169.481864 
L 350.751654 170.955208 
L 352.22163 170.394088 
L 353.691607 170.048213 
L 355.161583 169.005179 
L 356.63156 171.011286 
L 358.101536 166.899358 
L 359.571513 169.940515 
L 361.041489 170.390814 
L 362.511466 170.371511 
L 363.981442 170.408005 
L 365.451419 170.753756 
L 366.921395 169.917748 
L 368.391372 170.05974 
L 369.861348 169.326996 
L 371.331325 171.003118 
L 372.801301 172.01571 
L 374.271278 172.485004 
L 375.741254 171.842704 
L 377.21123 171.627656 
L 378.681207 170.605472 
L 380.151183 170.973398 
L 381.62116 171.636694 
L 383.091136 171.944305 
L 384.561113 172.016822 
L 386.031089 171.656682 
L 387.501066 172.345937 
L 388.971042 171.933347 
L 390.441019 171.901452 
L 391.910995 171.468113 
L 393.380972 171.371554 
L 394.850948 169.799356 
L 396.320925 170.131427 
L 397.790901 170.624167 
L 399.260878 170.607949 
L 400.730854 171.251193 
L 402.200831 160.929291 
L 403.670807 127.211806 
L 405.140784 154.959357 
L 406.61076 148.699509 
L 408.080737 154.026836 
L 409.550713 156.163057 
L 411.02069 154.06129 
L 412.490666 161.663112 
L 413.960643 164.82085 
L 415.430619 170.610881 
L 416.900596 170.909063 
L 418.370572 172.005112 
L 419.840549 170.583961 
L 421.310525 170.023978 
" clip-path="url(#p04f872579f)" style="fill: none; stroke: #1f77b4; stroke-width: 1.5; stroke-linecap: square"/>
   </g>
   <g id="line2d_34">
    <path d="M 275.782853 170.076607 
L 277.252829 169.498497 
L 278.722806 171.783501 
L 280.192782 170.450729 
L 281.662759 171.872803 
L 283.132735 171.082496 
L 284.602712 169.629515 
L 286.072688 169.616043 
L 287.542665 170.623215 
L 289.012641 167.56249 
L 290.482618 167.847824 
L 291.952594 168.155188 
L 293.422571 168.486091 
L 294.892547 168.300245 
L 296.362524 169.161023 
L 297.8325 167.772512 
L 299.302477 167.312289 
L 300.772453 168.370023 
L 302.24243 169.8955 
L 303.712406 169.754565 
L 305.182383 171.268579 
L 306.652359 170.881132 
L 308.122336 170.477059 
L 309.592312 168.534907 
L 311.062289 170.628703 
L 312.532265 168.773129 
L 314.002242 167.449972 
L 315.472218 168.448824 
L 316.942195 169.837027 
L 318.412171 169.538923 
L 319.882148 170.48886 
L 321.352124 169.556832 
L 322.822101 167.728324 
L 324.292077 166.112692 
L 325.762053 166.844402 
L 327.23203 167.611765 
L 328.702006 163.953151 
L 330.171983 163.301784 
L 331.641959 167.778088 
L 333.111936 169.178999 
L 334.581912 168.437233 
L 336.051889 170.024308 
L 337.521865 170.519991 
L 338.991842 169.396521 
L 340.461818 170.127071 
L 341.931795 169.032985 
L 343.401771 169.908398 
L 344.871748 170.382276 
L 346.341724 168.46038 
L 347.811701 170.46977 
L 349.281677 170.384065 
L 350.751654 171.20865 
L 352.22163 171.482951 
L 353.691607 167.672362 
L 355.161583 168.992685 
L 356.63156 168.369806 
L 358.101536 168.950173 
L 359.571513 168.350557 
L 361.041489 162.834204 
L 362.511466 159.505015 
L 363.981442 162.580019 
L 365.451419 163.509542 
L 366.921395 157.882846 
L 368.391372 160.14016 
L 369.861348 154.935601 
L 371.331325 170.564546 
L 372.801301 167.633258 
L 374.271278 168.126909 
L 375.741254 167.276612 
L 377.21123 170.255287 
L 378.681207 169.62347 
L 380.151183 170.029395 
L 381.62116 170.232376 
L 383.091136 169.716657 
L 384.561113 170.998589 
L 386.031089 170.846749 
L 387.501066 170.641847 
L 388.971042 170.902626 
L 390.441019 170.924126 
L 391.910995 171.069198 
L 393.380972 170.824408 
L 394.850948 170.846012 
L 396.320925 167.75765 
L 397.790901 171.297073 
L 399.260878 171.322608 
L 400.730854 169.738416 
L 402.200831 171.065906 
L 403.670807 171.513893 
L 405.140784 170.391648 
L 406.61076 170.75103 
L 408.080737 170.310612 
L 409.550713 170.750674 
L 411.02069 171.008224 
L 412.490666 170.209781 
L 413.960643 171.236649 
L 415.430619 171.34956 
L 416.900596 171.380697 
L 418.370572 167.440614 
L 419.840549 165.454761 
L 421.310525 156.760832 
" clip-path="url(#p04f872579f)" style="fill: none; stroke: #ff7f0e; stroke-width: 1.5; stroke-linecap: square"/>
   </g>
   <g id="line2d_35"/>
   <g id="line2d_36"/>
   <g id="patch_18">
    <path d="M 268.506469 173.32 
L 268.506469 24.72 
" style="fill: none; stroke: #000000; stroke-width: 0.8; stroke-linejoin: miter; stroke-linecap: square"/>
   </g>
   <g id="patch_19">
    <path d="M 268.506469 173.32 
L 428.586909 173.32 
" style="fill: none; stroke: #000000; stroke-width: 0.8; stroke-linejoin: miter; stroke-linecap: square"/>
   </g>
   <g id="text_26">
    <!-- condition = tau -->
    <g transform="translate(309.867783 18.72) scale(0.1 -0.1)">
     <defs>
      <path id="DejaVuSans-75" d="M 544 1381 
L 544 3500 
L 1119 3500 
L 1119 1403 
Q 1119 906 1312 657 
Q 1506 409 1894 409 
Q 2359 409 2629 706 
Q 2900 1003 2900 1516 
L 2900 3500 
L 3475 3500 
L 3475 0 
L 2900 0 
L 2900 538 
Q 2691 219 2414 64 
Q 2138 -91 1772 -91 
Q 1169 -91 856 284 
Q 544 659 544 1381 
z
M 1991 3584 
L 1991 3584 
z
" transform="scale(0.015625)"/>
     </defs>
     <use xlink:href="#DejaVuSans-63"/>
     <use xlink:href="#DejaVuSans-6f" x="54.980469"/>
     <use xlink:href="#DejaVuSans-6e" x="116.162109"/>
     <use xlink:href="#DejaVuSans-64" x="179.541016"/>
     <use xlink:href="#DejaVuSans-69" x="243.017578"/>
     <use xlink:href="#DejaVuSans-74" x="270.800781"/>
     <use xlink:href="#DejaVuSans-69" x="310.009766"/>
     <use xlink:href="#DejaVuSans-6f" x="337.792969"/>
     <use xlink:href="#DejaVuSans-6e" x="398.974609"/>
     <use xlink:href="#DejaVuSans-20" x="462.353516"/>
     <use xlink:href="#DejaVuSans-3d" x="494.140625"/>
     <use xlink:href="#DejaVuSans-20" x="577.929688"/>
     <use xlink:href="#DejaVuSans-74" x="609.716797"/>
     <use xlink:href="#DejaVuSans-61" x="648.925781"/>
     <use xlink:href="#DejaVuSans-75" x="710.205078"/>
    </g>
   </g>
   <g id="legend_1">
    <g id="patch_20">
     <path d="M 301.402534 106.666875 
L 421.586909 106.666875 
Q 423.586909 106.666875 423.586909 104.666875 
L 423.586909 31.72 
Q 423.586909 29.72 421.586909 29.72 
L 301.402534 29.72 
Q 299.402534 29.72 299.402534 31.72 
L 299.402534 104.666875 
Q 299.402534 106.666875 301.402534 106.666875 
z
" style="fill: #ffffff; opacity: 0.8; stroke: #cccccc; stroke-linejoin: miter"/>
    </g>
    <g id="text_27">
     <!-- condition -->
     <g transform="translate(338.376752 41.318438) scale(0.1 -0.1)">
      <use xlink:href="#DejaVuSans-63"/>
      <use xlink:href="#DejaVuSans-6f" x="54.980469"/>
      <use xlink:href="#DejaVuSans-6e" x="116.162109"/>
      <use xlink:href="#DejaVuSans-64" x="179.541016"/>
      <use xlink:href="#DejaVuSans-69" x="243.017578"/>
      <use xlink:href="#DejaVuSans-74" x="270.800781"/>
      <use xlink:href="#DejaVuSans-69" x="310.009766"/>
      <use xlink:href="#DejaVuSans-6f" x="337.792969"/>
      <use xlink:href="#DejaVuSans-6e" x="398.974609"/>
     </g>
    </g>
    <g id="line2d_37">
     <path d="M 303.402534 52.496563 
L 313.402534 52.496563 
L 323.402534 52.496563 
" style="fill: none; stroke: #1f77b4; stroke-width: 1.5; stroke-linecap: square"/>
    </g>
    <g id="text_28">
     <!-- sibs -->
     <g transform="translate(331.402534 55.996563) scale(0.1 -0.1)">
      <use xlink:href="#DejaVuSans-73"/>
      <use xlink:href="#DejaVuSans-69" x="52.099609"/>
      <use xlink:href="#DejaVuSans-62" x="79.882812"/>
      <use xlink:href="#DejaVuSans-73" x="143.359375"/>
     </g>
    </g>
    <g id="line2d_38">
     <path d="M 303.402534 67.174688 
L 313.402534 67.174688 
L 323.402534 67.174688 
" style="fill: none; stroke: #ff7f0e; stroke-width: 1.5; stroke-linecap: square"/>
    </g>
    <g id="text_29">
     <!-- tau -->
     <g transform="translate(331.402534 70.674688) scale(0.1 -0.1)">
      <use xlink:href="#DejaVuSans-74"/>
      <use xlink:href="#DejaVuSans-61" x="39.208984"/>
      <use xlink:href="#DejaVuSans-75" x="100.488281"/>
     </g>
    </g>
    <g id="patch_21">
     <path d="M 303.402534 85.352813 
L 323.402534 85.352813 
L 323.402534 78.352813 
L 303.402534 78.352813 
z
" style="fill: #3274a1"/>
    </g>
    <g id="text_30">
     <!-- response_rate -->
     <g transform="translate(331.402534 85.352813) scale(0.1 -0.1)">
      <defs>
       <path id="DejaVuSans-70" d="M 1159 525 
L 1159 -1331 
L 581 -1331 
L 581 3500 
L 1159 3500 
L 1159 2969 
Q 1341 3281 1617 3432 
Q 1894 3584 2278 3584 
Q 2916 3584 3314 3078 
Q 3713 2572 3713 1747 
Q 3713 922 3314 415 
Q 2916 -91 2278 -91 
Q 1894 -91 1617 61 
Q 1341 213 1159 525 
z
M 3116 1747 
Q 3116 2381 2855 2742 
Q 2594 3103 2138 3103 
Q 1681 3103 1420 2742 
Q 1159 2381 1159 1747 
Q 1159 1113 1420 752 
Q 1681 391 2138 391 
Q 2594 391 2855 752 
Q 3116 1113 3116 1747 
z
" transform="scale(0.015625)"/>
      </defs>
      <use xlink:href="#DejaVuSans-72"/>
      <use xlink:href="#DejaVuSans-65" x="38.863281"/>
      <use xlink:href="#DejaVuSans-73" x="100.386719"/>
      <use xlink:href="#DejaVuSans-70" x="152.486328"/>
      <use xlink:href="#DejaVuSans-6f" x="215.962891"/>
      <use xlink:href="#DejaVuSans-6e" x="277.144531"/>
      <use xlink:href="#DejaVuSans-73" x="340.523438"/>
      <use xlink:href="#DejaVuSans-65" x="392.623047"/>
      <use xlink:href="#DejaVuSans-5f" x="454.146484"/>
      <use xlink:href="#DejaVuSans-72" x="504.146484"/>
      <use xlink:href="#DejaVuSans-61" x="545.259766"/>
      <use xlink:href="#DejaVuSans-74" x="606.539062"/>
      <use xlink:href="#DejaVuSans-65" x="645.748047"/>
     </g>
    </g>
    <g id="patch_22">
     <path d="M 303.402534 100.309063 
L 323.402534 100.309063 
L 323.402534 93.309063 
L 303.402534 93.309063 
z
" style="fill: #e1812c"/>
    </g>
    <g id="text_31">
     <!-- no_response_rate -->
     <g transform="translate(331.402534 100.309063) scale(0.1 -0.1)">
      <use xlink:href="#DejaVuSans-6e"/>
      <use xlink:href="#DejaVuSans-6f" x="63.378906"/>
      <use xlink:href="#DejaVuSans-5f" x="124.560547"/>
      <use xlink:href="#DejaVuSans-72" x="174.560547"/>
      <use xlink:href="#DejaVuSans-65" x="213.423828"/>
      <use xlink:href="#DejaVuSans-73" x="274.947266"/>
      <use xlink:href="#DejaVuSans-70" x="327.046875"/>
      <use xlink:href="#DejaVuSans-6f" x="390.523438"/>
      <use xlink:href="#DejaVuSans-6e" x="451.705078"/>
      <use xlink:href="#DejaVuSans-73" x="515.083984"/>
      <use xlink:href="#DejaVuSans-65" x="567.183594"/>
      <use xlink:href="#DejaVuSans-5f" x="628.707031"/>
      <use xlink:href="#DejaVuSans-72" x="678.707031"/>
      <use xlink:href="#DejaVuSans-61" x="719.820312"/>
      <use xlink:href="#DejaVuSans-74" x="781.099609"/>
      <use xlink:href="#DejaVuSans-65" x="820.308594"/>
     </g>
    </g>
   </g>
  </g>
  <g id="text_32">
   <!-- Response Rate vs No-Response Rate per Trial by Condition -->
   <g transform="translate(210.190313 -1.681875) scale(0.12 -0.12)">
    <defs>
     <path id="DejaVuSans-4e" d="M 628 4666 
L 1478 4666 
L 3547 763 
L 3547 4666 
L 4159 4666 
L 4159 0 
L 3309 0 
L 1241 3903 
L 1241 0 
L 628 0 
L 628 4666 
z
" transform="scale(0.015625)"/>
     <path id="DejaVuSans-2d" d="M 313 2009 
L 1997 2009 
L 1997 1497 
L 313 1497 
L 313 2009 
z
" transform="scale(0.015625)"/>
     <path id="DejaVuSans-79" d="M 2059 -325 
Q 1816 -950 1584 -1140 
Q 1353 -1331 966 -1331 
L 506 -1331 
L 506 -850 
L 844 -850 
Q 1081 -850 1212 -737 
Q 1344 -625 1503 -206 
L 1606 56 
L 191 3500 
L 800 3500 
L 1894 763 
L 2988 3500 
L 3597 3500 
L 2059 -325 
z
" transform="scale(0.015625)"/>
     <path id="DejaVuSans-43" d="M 4122 4306 
L 4122 3641 
Q 3803 3938 3442 4084 
Q 3081 4231 2675 4231 
Q 1875 4231 1450 3742 
Q 1025 3253 1025 2328 
Q 1025 1406 1450 917 
Q 1875 428 2675 428 
Q 3081 428 3442 575 
Q 3803 722 4122 1019 
L 4122 359 
Q 3791 134 3420 21 
Q 3050 -91 2638 -91 
Q 1578 -91 968 557 
Q 359 1206 359 2328 
Q 359 3453 968 4101 
Q 1578 4750 2638 4750 
Q 3056 4750 3426 4639 
Q 3797 4528 4122 4306 
z
" transform="scale(0.015625)"/>
    </defs>
    <use xlink:href="#DejaVuSans-52"/>
    <use xlink:href="#DejaVuSans-65" x="64.982422"/>
    <use xlink:href="#DejaVuSans-73" x="126.505859"/>
    <use xlink:href="#DejaVuSans-70" x="178.605469"/>
    <use xlink:href="#DejaVuSans-6f" x="242.082031"/>
    <use xlink:href="#DejaVuSans-6e" x="303.263672"/>
    <use xlink:href="#DejaVuSans-73" x="366.642578"/>
    <use xlink:href="#DejaVuSans-65" x="418.742188"/>
    <use xlink:href="#DejaVuSans-20" x="480.265625"/>
    <use xlink:href="#DejaVuSans-52" x="512.052734"/>
    <use xlink:href="#DejaVuSans-61" x="579.285156"/>
    <use xlink:href="#DejaVuSans-74" x="640.564453"/>
    <use xlink:href="#DejaVuSans-65" x="679.773438"/>
    <use xlink:href="#DejaVuSans-20" x="741.296875"/>
    <use xlink:href="#DejaVuSans-76" x="773.083984"/>
    <use xlink:href="#DejaVuSans-73" x="832.263672"/>
    <use xlink:href="#DejaVuSans-20" x="884.363281"/>
    <use xlink:href="#DejaVuSans-4e" x="916.150391"/>
    <use xlink:href="#DejaVuSans-6f" x="990.955078"/>
    <use xlink:href="#DejaVuSans-2d" x="1054.011719"/>
    <use xlink:href="#DejaVuSans-52" x="1090.095703"/>
    <use xlink:href="#DejaVuSans-65" x="1155.078125"/>
    <use xlink:href="#DejaVuSans-73" x="1216.601562"/>
    <use xlink:href="#DejaVuSans-70" x="1268.701172"/>
    <use xlink:href="#DejaVuSans-6f" x="1332.177734"/>
    <use xlink:href="#DejaVuSans-6e" x="1393.359375"/>
    <use xlink:href="#DejaVuSans-73" x="1456.738281"/>
    <use xlink:href="#DejaVuSans-65" x="1508.837891"/>
    <use xlink:href="#DejaVuSans-20" x="1570.361328"/>
    <use xlink:href="#DejaVuSans-52" x="1602.148438"/>
    <use xlink:href="#DejaVuSans-61" x="1669.380859"/>
    <use xlink:href="#DejaVuSans-74" x="1730.660156"/>
    <use xlink:href="#DejaVuSans-65" x="1769.869141"/>
    <use xlink:href="#DejaVuSans-20" x="1831.392578"/>
    <use xlink:href="#DejaVuSans-70" x="1863.179688"/>
    <use xlink:href="#DejaVuSans-65" x="1926.65625"/>
    <use xlink:href="#DejaVuSans-72" x="1988.179688"/>
    <use xlink:href="#DejaVuSans-20" x="2029.292969"/>
    <use xlink:href="#DejaVuSans-54" x="2061.080078"/>
    <use xlink:href="#DejaVuSans-72" x="2107.414062"/>
    <use xlink:href="#DejaVuSans-69" x="2148.527344"/>
    <use xlink:href="#DejaVuSans-61" x="2176.310547"/>
    <use xlink:href="#DejaVuSans-6c" x="2237.589844"/>
    <use xlink:href="#DejaVuSans-20" x="2265.373047"/>
    <use xlink:href="#DejaVuSans-62" x="2297.160156"/>
    <use xlink:href="#DejaVuSans-79" x="2360.636719"/>
    <use xlink:href="#DejaVuSans-20" x="2419.816406"/>
    <use xlink:href="#DejaVuSans-43" x="2451.603516"/>
    <use xlink:href="#DejaVuSans-6f" x="2521.427734"/>
    <use xlink:href="#DejaVuSans-6e" x="2582.609375"/>
    <use xlink:href="#DejaVuSans-64" x="2645.988281"/>
    <use xlink:href="#DejaVuSans-69" x="2709.464844"/>
    <use xlink:href="#DejaVuSans-74" x="2737.248047"/>
    <use xlink:href="#DejaVuSans-69" x="2776.457031"/>
    <use xlink:href="#DejaVuSans-6f" x="2804.240234"/>
    <use xlink:href="#DejaVuSans-6e" x="2865.421875"/>
   </g>
  </g>
  <g id="legend_2">
   <g id="text_33">
    <!-- response_type -->
    <g transform="translate(668.369688 95.664062) scale(0.1 -0.1)">
     <use xlink:href="#DejaVuSans-72"/>
     <use xlink:href="#DejaVuSans-65" x="38.863281"/>
     <use xlink:href="#DejaVuSans-73" x="100.386719"/>
     <use xlink:href="#DejaVuSans-70" x="152.486328"/>
     <use xlink:href="#DejaVuSans-6f" x="215.962891"/>
     <use xlink:href="#DejaVuSans-6e" x="277.144531"/>
     <use xlink:href="#DejaVuSans-73" x="340.523438"/>
     <use xlink:href="#DejaVuSans-65" x="392.623047"/>
     <use xlink:href="#DejaVuSans-5f" x="454.146484"/>
     <use xlink:href="#DejaVuSans-74" x="504.146484"/>
     <use xlink:href="#DejaVuSans-79" x="543.355469"/>
     <use xlink:href="#DejaVuSans-70" x="602.535156"/>
     <use xlink:href="#DejaVuSans-65" x="666.011719"/>
    </g>
   </g>
   <g id="patch_23">
    <path d="M 646.655625 110.620312 
L 666.655625 110.620312 
L 666.655625 103.620312 
L 646.655625 103.620312 
z
" style="fill: #3274a1"/>
   </g>
   <g id="text_34">
    <!-- response_rate -->
    <g transform="translate(674.655625 110.620312) scale(0.1 -0.1)">
     <use xlink:href="#DejaVuSans-72"/>
     <use xlink:href="#DejaVuSans-65" x="38.863281"/>
     <use xlink:href="#DejaVuSans-73" x="100.386719"/>
     <use xlink:href="#DejaVuSans-70" x="152.486328"/>
     <use xlink:href="#DejaVuSans-6f" x="215.962891"/>
     <use xlink:href="#DejaVuSans-6e" x="277.144531"/>
     <use xlink:href="#DejaVuSans-73" x="340.523438"/>
     <use xlink:href="#DejaVuSans-65" x="392.623047"/>
     <use xlink:href="#DejaVuSans-5f" x="454.146484"/>
     <use xlink:href="#DejaVuSans-72" x="504.146484"/>
     <use xlink:href="#DejaVuSans-61" x="545.259766"/>
     <use xlink:href="#DejaVuSans-74" x="606.539062"/>
     <use xlink:href="#DejaVuSans-65" x="645.748047"/>
    </g>
   </g>
   <g id="patch_24">
    <path d="M 646.655625 125.576562 
L 666.655625 125.576562 
L 666.655625 118.576562 
L 646.655625 118.576562 
z
" style="fill: #e1812c"/>
   </g>
   <g id="text_35">
    <!-- no_response_rate -->
    <g transform="translate(674.655625 125.576562) scale(0.1 -0.1)">
     <use xlink:href="#DejaVuSans-6e"/>
     <use xlink:href="#DejaVuSans-6f" x="63.378906"/>
     <use xlink:href="#DejaVuSans-5f" x="124.560547"/>
     <use xlink:href="#DejaVuSans-72" x="174.560547"/>
     <use xlink:href="#DejaVuSans-65" x="213.423828"/>
     <use xlink:href="#DejaVuSans-73" x="274.947266"/>
     <use xlink:href="#DejaVuSans-70" x="327.046875"/>
     <use xlink:href="#DejaVuSans-6f" x="390.523438"/>
     <use xlink:href="#DejaVuSans-6e" x="451.705078"/>
     <use xlink:href="#DejaVuSans-73" x="515.083984"/>
     <use xlink:href="#DejaVuSans-65" x="567.183594"/>
     <use xlink:href="#DejaVuSans-5f" x="628.707031"/>
     <use xlink:href="#DejaVuSans-72" x="678.707031"/>
     <use xlink:href="#DejaVuSans-61" x="719.820312"/>
     <use xlink:href="#DejaVuSans-74" x="781.099609"/>
     <use xlink:href="#DejaVuSans-65" x="820.308594"/>
    </g>
   </g>
  </g>
 </g>
 <defs>
  <clipPath id="pbdb3063527">
   <rect x="57.000622" y="24.72" width="160.080439" height="148.6"/>
  </clipPath>
  <clipPath id="p04f872579f">
   <rect x="268.506469" y="24.72" width="160.080439" height="148.6"/>
  </clipPath>
 </defs>
</svg>
