<?xml version="1.0" encoding="utf-8" standalone="no"?>
<!DOCTYPE svg PUBLIC "-//W3C//DTD SVG 1.1//EN"
  "http://www.w3.org/Graphics/SVG/1.1/DTD/svg11.dtd">
<svg xmlns:xlink="http://www.w3.org/1999/xlink" width="460.8pt" height="345.6pt" viewBox="0 0 460.8 345.6" xmlns="http://www.w3.org/2000/svg" version="1.1">
 <metadata>
  <rdf:RDF xmlns:dc="http://purl.org/dc/elements/1.1/" xmlns:cc="http://creativecommons.org/ns#" xmlns:rdf="http://www.w3.org/1999/02/22-rdf-syntax-ns#">
   <cc:Work>
    <dc:type rdf:resource="http://purl.org/dc/dcmitype/StillImage"/>
    <dc:date>2024-06-11T11:56:04.481392</dc:date>
    <dc:format>image/svg+xml</dc:format>
    <dc:creator>
     <cc:Agent>
      <dc:title>Matplotlib v3.9.0, https://matplotlib.org/</dc:title>
     </cc:Agent>
    </dc:creator>
   </cc:Work>
  </rdf:RDF>
 </metadata>
 <defs>
  <style type="text/css">*{stroke-linejoin: round; stroke-linecap: butt}</style>
 </defs>
 <g id="figure_1">
  <g id="patch_1">
   <path d="M 0 345.6 
L 460.8 345.6 
L 460.8 0 
L 0 0 
z
" style="fill: #ffffff"/>
  </g>
  <g id="axes_1">
   <g id="patch_2">
    <path d="M 57.6 307.584 
L 414.72 307.584 
L 414.72 41.472 
L 57.6 41.472 
z
" style="fill: #ffffff"/>
   </g>
   <g id="PolyCollection_1">
    <path d="M -578.0736 227.703896 
L -578.0736 237.457897 
L -563.7888 240.371401 
L -549.504 244.800331 
L -535.2192 242.386345 
L -520.9344 236.479389 
L -506.6496 236.7414 
L -492.3648 243.590049 
L -478.08 235.18465 
L -463.7952 235.289691 
L -449.5104 243.361487 
L -435.2256 235.265678 
L -420.9408 234.856122 
L -406.656 241.805555 
L -392.3712 257.823219 
L -378.0864 244.405566 
L -363.8016 244.646439 
L -349.5168 234.310484 
L -335.232 242.372395 
L -320.9472 243.14944 
L -306.6624 234.653764 
L -292.3776 238.248282 
L -278.0928 241.974568 
L -263.808 235.125642 
L -249.5232 236.52242 
L -235.2384 240.656303 
L -220.9536 234.499655 
L -206.6688 236.016849 
L -192.384 238.359326 
L -178.0992 237.001308 
L -163.8144 241.874956 
L -149.5296 242.295649 
L -135.2448 236.264116 
L -120.96 236.593826 
L -106.6752 239.313664 
L -92.3904 237.637229 
L -78.1056 244.242691 
L -63.8208 235.60208 
L -49.536 243.420447 
L -35.2512 243.686016 
L -20.9664 234.34753 
L -6.6816 240.443972 
L 7.6032 246.998479 
L 21.888 238.635084 
L 36.1728 235.917012 
L 50.4576 245.441807 
L 64.7424 243.339899 
L 79.0272 238.880769 
L 93.312 237.768309 
L 107.5968 241.428598 
L 121.8816 237.710122 
L 136.1664 244.947183 
L 150.4512 272.152012 
L 164.736 278.945552 
L 179.0208 259.765306 
L 193.3056 277.666266 
L 207.5904 295.488 
L 221.8752 288.457644 
L 236.16 267.495084 
L 250.4448 264.488759 
L 264.7296 241.184449 
L 279.0144 256.885654 
L 293.2992 250.379467 
L 307.584 235.600621 
L 321.8688 251.621368 
L 336.1536 237.753139 
L 350.4384 235.287647 
L 364.7232 244.145589 
L 379.008 235.427164 
L 393.2928 234.738561 
L 407.5776 237.18014 
L 421.8624 235.750088 
L 436.1472 235.936175 
L 450.432 235.526799 
L 464.7168 236.10288 
L 479.0016 235.22585 
L 493.2864 235.651641 
L 507.5712 235.461483 
L 521.856 234.903715 
L 536.1408 236.201317 
L 550.4256 247.228994 
L 564.7104 238.028605 
L 578.9952 241.766982 
L 593.28 235.686274 
L 607.5648 235.833745 
L 621.8496 240.535328 
L 636.1344 235.249121 
L 650.4192 234.171796 
L 664.704 235.982778 
L 678.9888 234.533268 
L 693.2736 240.953907 
L 707.5584 235.207398 
L 721.8432 235.15729 
L 736.128 239.580341 
L 750.4128 235.189757 
L 764.6976 234.895899 
L 778.9824 235.110593 
L 793.2672 235.675572 
L 807.552 236.723146 
L 821.8368 239.557791 
L 836.1216 234.390595 
L 836.1216 226.281521 
L 836.1216 226.281521 
L 821.8368 233.806724 
L 807.552 233.201932 
L 793.2672 233.858203 
L 778.9824 233.305734 
L 764.6976 231.826746 
L 750.4128 233.381104 
L 736.128 233.493086 
L 721.8432 231.130928 
L 707.5584 229.171548 
L 693.2736 233.668579 
L 678.9888 231.235288 
L 664.704 222.144862 
L 650.4192 229.720368 
L 636.1344 231.674549 
L 621.8496 233.408515 
L 607.5648 229.145646 
L 593.28 228.510656 
L 578.9952 233.39926 
L 564.7104 232.628162 
L 550.4256 228.639892 
L 536.1408 215.724001 
L 521.856 232.657247 
L 507.5712 233.506683 
L 493.2864 233.431417 
L 479.0016 232.956181 
L 464.7168 234.01646 
L 450.432 232.346478 
L 436.1472 233.204873 
L 421.8624 233.734916 
L 407.5776 233.297249 
L 393.2928 229.718138 
L 379.008 230.276893 
L 364.7232 232.736276 
L 350.4384 228.401339 
L 336.1536 228.123075 
L 321.8688 227.697358 
L 307.584 220.646521 
L 293.2992 223.974299 
L 279.0144 225.806013 
L 264.7296 210.272458 
L 250.4448 211.608175 
L 236.16 209.230774 
L 221.8752 229.530456 
L 207.5904 192.819647 
L 193.3056 195.616813 
L 179.0208 139.008169 
L 164.736 109.846407 
L 150.4512 53.568 
L 136.1664 98.549716 
L 121.8816 199.422427 
L 107.5968 210.889405 
L 93.312 228.021035 
L 79.0272 225.245327 
L 64.7424 232.247856 
L 50.4576 234.119512 
L 36.1728 224.5713 
L 21.888 227.268849 
L 7.6032 233.632772 
L -6.6816 231.681294 
L -20.9664 217.980018 
L -35.2512 232.788844 
L -49.536 231.640093 
L -63.8208 222.410548 
L -78.1056 227.952323 
L -92.3904 226.410783 
L -106.6752 216.764265 
L -120.96 226.61842 
L -135.2448 224.150694 
L -149.5296 230.814533 
L -163.8144 228.449223 
L -178.0992 227.429083 
L -192.384 231.706569 
L -206.6688 233.483591 
L -220.9536 228.890724 
L -235.2384 233.77077 
L -249.5232 232.674139 
L -263.808 227.731809 
L -278.0928 233.786354 
L -292.3776 231.580815 
L -306.6624 227.67789 
L -320.9472 233.291481 
L -335.232 230.737421 
L -349.5168 225.500746 
L -363.8016 229.872027 
L -378.0864 219.803202 
L -392.3712 234.406125 
L -406.656 234.679885 
L -420.9408 231.274948 
L -435.2256 228.476696 
L -449.5104 233.732101 
L -463.7952 233.486149 
L -478.08 225.609876 
L -492.3648 234.199014 
L -506.6496 233.715105 
L -520.9344 221.759145 
L -535.2192 232.757729 
L -549.504 231.041998 
L -563.7888 226.780909 
L -578.0736 227.703896 
z
" clip-path="url(#p9ddf13ed2f)" style="fill: #1f77b4; fill-opacity: 0.2; stroke: #1f77b4; stroke-opacity: 0.2"/>
   </g>
   <g id="PolyCollection_2">
    <path d="M -578.0736 232.62988 
L -578.0736 239.153762 
L -563.7888 239.312234 
L -549.504 237.165242 
L -535.2192 237.039012 
L -520.9344 234.464555 
L -506.6496 235.137076 
L -492.3648 236.496609 
L -478.08 246.158037 
L -463.7952 234.22101 
L -449.5104 234.524294 
L -435.2256 238.369114 
L -420.9408 234.622354 
L -406.656 237.29279 
L -392.3712 239.271597 
L -378.0864 235.216263 
L -363.8016 234.423741 
L -349.5168 238.934606 
L -335.232 236.02011 
L -320.9472 235.411975 
L -306.6624 247.195903 
L -292.3776 236.780757 
L -278.0928 236.267192 
L -263.808 240.164356 
L -249.5232 241.870823 
L -235.2384 242.661548 
L -220.9536 235.9994 
L -206.6688 234.047754 
L -192.384 236.614835 
L -178.0992 237.545866 
L -163.8144 243.164282 
L -149.5296 236.100019 
L -135.2448 235.373976 
L -120.96 241.580006 
L -106.6752 241.761973 
L -92.3904 239.472773 
L -78.1056 237.253082 
L -63.8208 237.953363 
L -49.536 235.358921 
L -35.2512 238.553955 
L -20.9664 234.52072 
L -6.6816 235.583127 
L 7.6032 245.575113 
L 21.888 237.642156 
L 36.1728 235.488721 
L 50.4576 257.787674 
L 64.7424 242.16797 
L 79.0272 235.450824 
L 93.312 235.573674 
L 107.5968 237.075702 
L 121.8816 238.574002 
L 136.1664 244.819945 
L 150.4512 293.973779 
L 164.736 291.9535 
L 179.0208 293.255681 
L 193.3056 240.613964 
L 207.5904 234.313624 
L 221.8752 246.545798 
L 236.16 245.567381 
L 250.4448 241.61227 
L 264.7296 270.764909 
L 279.0144 254.152987 
L 293.2992 236.163284 
L 307.584 244.369024 
L 321.8688 245.147757 
L 336.1536 241.128984 
L 350.4384 236.509678 
L 364.7232 243.16176 
L 379.008 236.856934 
L 393.2928 241.888329 
L 407.5776 235.354553 
L 421.8624 238.537755 
L 436.1472 235.012815 
L 450.432 235.060396 
L 464.7168 233.957399 
L 479.0016 234.255355 
L 493.2864 238.027206 
L 507.5712 234.922273 
L 521.856 234.510172 
L 536.1408 235.337483 
L 550.4256 235.886869 
L 564.7104 243.521356 
L 578.9952 234.719913 
L 593.28 234.84229 
L 607.5648 239.206324 
L 621.8496 240.611251 
L 636.1344 234.684195 
L 650.4192 234.433597 
L 664.704 237.287817 
L 678.9888 235.318987 
L 693.2736 233.327183 
L 707.5584 238.787119 
L 721.8432 239.336985 
L 736.128 234.211726 
L 750.4128 239.90463 
L 764.6976 235.841875 
L 778.9824 234.910625 
L 793.2672 238.594757 
L 807.552 239.767102 
L 821.8368 233.574729 
L 836.1216 238.613972 
L 836.1216 218.914131 
L 836.1216 218.914131 
L 821.8368 216.962716 
L 807.552 226.919735 
L 793.2672 229.849612 
L 778.9824 230.314704 
L 764.6976 227.261299 
L 750.4128 232.501043 
L 736.128 230.322177 
L 721.8432 234.296821 
L 707.5584 233.600304 
L 693.2736 228.596346 
L 678.9888 232.023633 
L 664.704 233.978869 
L 650.4192 231.163012 
L 636.1344 232.395044 
L 621.8496 232.973359 
L 607.5648 232.736802 
L 593.28 232.606848 
L 578.9952 227.452286 
L 564.7104 233.268671 
L 550.4256 233.518596 
L 536.1408 233.743817 
L 521.856 232.595921 
L 507.5712 233.709072 
L 493.2864 234.074813 
L 479.0016 230.991622 
L 464.7168 231.647521 
L 450.432 233.072526 
L 436.1472 230.642235 
L 421.8624 233.849949 
L 407.5776 229.550095 
L 393.2928 229.765358 
L 379.008 228.572688 
L 364.7232 231.716444 
L 350.4384 229.682354 
L 336.1536 228.497072 
L 321.8688 230.709807 
L 307.584 228.990888 
L 293.2992 221.422715 
L 279.0144 228.084103 
L 264.7296 229.037206 
L 250.4448 210.216202 
L 236.16 217.990983 
L 221.8752 202.147329 
L 207.5904 181.371025 
L 193.3056 199.424895 
L 179.0208 216.893174 
L 164.736 214.653594 
L 150.4512 242.874637 
L 136.1664 233.894435 
L 121.8816 226.541689 
L 107.5968 228.568052 
L 93.312 219.732281 
L 79.0272 212.789599 
L 64.7424 233.858114 
L 50.4576 233.356003 
L 36.1728 228.003781 
L 21.888 232.569553 
L 7.6032 233.369988 
L -6.6816 227.589901 
L -20.9664 224.868633 
L -35.2512 231.671593 
L -49.536 225.844046 
L -63.8208 232.040967 
L -78.1056 231.46785 
L -92.3904 230.428219 
L -106.6752 229.766839 
L -120.96 230.769452 
L -135.2448 225.679386 
L -149.5296 230.134935 
L -163.8144 231.706421 
L -178.0992 228.851221 
L -192.384 232.219895 
L -206.6688 225.735763 
L -220.9536 226.817881 
L -235.2384 232.101717 
L -249.5232 229.703793 
L -263.808 231.553314 
L -278.0928 226.148282 
L -292.3776 223.367144 
L -306.6624 232.230248 
L -320.9472 223.796649 
L -335.232 233.707067 
L -349.5168 233.501386 
L -363.8016 229.763649 
L -378.0864 226.049131 
L -392.3712 234.306492 
L -406.656 228.300914 
L -420.9408 230.874196 
L -435.2256 234.594571 
L -449.5104 232.214449 
L -463.7952 222.983049 
L -478.08 234.168738 
L -492.3648 234.044573 
L -506.6496 231.331974 
L -520.9344 231.545866 
L -535.2192 233.575473 
L -549.504 232.091914 
L -563.7888 230.995959 
L -578.0736 232.62988 
z
" clip-path="url(#p9ddf13ed2f)" style="fill: #ff7f0e; fill-opacity: 0.2; stroke: #ff7f0e; stroke-opacity: 0.2"/>
   </g>
   <g id="matplotlib.axis_1">
    <g id="xtick_1">
     <g id="line2d_1">
      <defs>
       <path id="m3a5acae75f" d="M 0 0 
L 0 3.5 
" style="stroke: #000000; stroke-width: 0.8"/>
      </defs>
      <g>
       <use xlink:href="#m3a5acae75f" x="57.6" y="307.584" style="stroke: #000000; stroke-width: 0.8"/>
      </g>
     </g>
     <g id="text_1">
      <!-- −50 -->
      <g transform="translate(47.047656 322.182437) scale(0.1 -0.1)">
       <defs>
        <path id="DejaVuSans-2212" d="M 678 2272 
L 4684 2272 
L 4684 1741 
L 678 1741 
L 678 2272 
z
" transform="scale(0.015625)"/>
        <path id="DejaVuSans-35" d="M 691 4666 
L 3169 4666 
L 3169 4134 
L 1269 4134 
L 1269 2991 
Q 1406 3038 1543 3061 
Q 1681 3084 1819 3084 
Q 2600 3084 3056 2656 
Q 3513 2228 3513 1497 
Q 3513 744 3044 326 
Q 2575 -91 1722 -91 
Q 1428 -91 1123 -41 
Q 819 9 494 109 
L 494 744 
Q 775 591 1075 516 
Q 1375 441 1709 441 
Q 2250 441 2565 725 
Q 2881 1009 2881 1497 
Q 2881 1984 2565 2268 
Q 2250 2553 1709 2553 
Q 1456 2553 1204 2497 
Q 953 2441 691 2322 
L 691 4666 
z
" transform="scale(0.015625)"/>
        <path id="DejaVuSans-30" d="M 2034 4250 
Q 1547 4250 1301 3770 
Q 1056 3291 1056 2328 
Q 1056 1369 1301 889 
Q 1547 409 2034 409 
Q 2525 409 2770 889 
Q 3016 1369 3016 2328 
Q 3016 3291 2770 3770 
Q 2525 4250 2034 4250 
z
M 2034 4750 
Q 2819 4750 3233 4129 
Q 3647 3509 3647 2328 
Q 3647 1150 3233 529 
Q 2819 -91 2034 -91 
Q 1250 -91 836 529 
Q 422 1150 422 2328 
Q 422 3509 836 4129 
Q 1250 4750 2034 4750 
z
" transform="scale(0.015625)"/>
       </defs>
       <use xlink:href="#DejaVuSans-2212"/>
       <use xlink:href="#DejaVuSans-35" x="83.789062"/>
       <use xlink:href="#DejaVuSans-30" x="147.412109"/>
      </g>
     </g>
    </g>
    <g id="xtick_2">
     <g id="line2d_2">
      <g>
       <use xlink:href="#m3a5acae75f" x="129.024" y="307.584" style="stroke: #000000; stroke-width: 0.8"/>
      </g>
     </g>
     <g id="text_2">
      <!-- 0 -->
      <g transform="translate(125.84275 322.182437) scale(0.1 -0.1)">
       <use xlink:href="#DejaVuSans-30"/>
      </g>
     </g>
    </g>
    <g id="xtick_3">
     <g id="line2d_3">
      <g>
       <use xlink:href="#m3a5acae75f" x="200.448" y="307.584" style="stroke: #000000; stroke-width: 0.8"/>
      </g>
     </g>
     <g id="text_3">
      <!-- 50 -->
      <g transform="translate(194.0855 322.182437) scale(0.1 -0.1)">
       <use xlink:href="#DejaVuSans-35"/>
       <use xlink:href="#DejaVuSans-30" x="63.623047"/>
      </g>
     </g>
    </g>
    <g id="xtick_4">
     <g id="line2d_4">
      <g>
       <use xlink:href="#m3a5acae75f" x="271.872" y="307.584" style="stroke: #000000; stroke-width: 0.8"/>
      </g>
     </g>
     <g id="text_4">
      <!-- 100 -->
      <g transform="translate(262.32825 322.182437) scale(0.1 -0.1)">
       <defs>
        <path id="DejaVuSans-31" d="M 794 531 
L 1825 531 
L 1825 4091 
L 703 3866 
L 703 4441 
L 1819 4666 
L 2450 4666 
L 2450 531 
L 3481 531 
L 3481 0 
L 794 0 
L 794 531 
z
" transform="scale(0.015625)"/>
       </defs>
       <use xlink:href="#DejaVuSans-31"/>
       <use xlink:href="#DejaVuSans-30" x="63.623047"/>
       <use xlink:href="#DejaVuSans-30" x="127.246094"/>
      </g>
     </g>
    </g>
    <g id="xtick_5">
     <g id="line2d_5">
      <g>
       <use xlink:href="#m3a5acae75f" x="343.296" y="307.584" style="stroke: #000000; stroke-width: 0.8"/>
      </g>
     </g>
     <g id="text_5">
      <!-- 150 -->
      <g transform="translate(333.75225 322.182437) scale(0.1 -0.1)">
       <use xlink:href="#DejaVuSans-31"/>
       <use xlink:href="#DejaVuSans-35" x="63.623047"/>
       <use xlink:href="#DejaVuSans-30" x="127.246094"/>
      </g>
     </g>
    </g>
    <g id="xtick_6">
     <g id="line2d_6">
      <g>
       <use xlink:href="#m3a5acae75f" x="414.72" y="307.584" style="stroke: #000000; stroke-width: 0.8"/>
      </g>
     </g>
     <g id="text_6">
      <!-- 200 -->
      <g transform="translate(405.17625 322.182437) scale(0.1 -0.1)">
       <defs>
        <path id="DejaVuSans-32" d="M 1228 531 
L 3431 531 
L 3431 0 
L 469 0 
L 469 531 
Q 828 903 1448 1529 
Q 2069 2156 2228 2338 
Q 2531 2678 2651 2914 
Q 2772 3150 2772 3378 
Q 2772 3750 2511 3984 
Q 2250 4219 1831 4219 
Q 1534 4219 1204 4116 
Q 875 4013 500 3803 
L 500 4441 
Q 881 4594 1212 4672 
Q 1544 4750 1819 4750 
Q 2544 4750 2975 4387 
Q 3406 4025 3406 3419 
Q 3406 3131 3298 2873 
Q 3191 2616 2906 2266 
Q 2828 2175 2409 1742 
Q 1991 1309 1228 531 
z
" transform="scale(0.015625)"/>
       </defs>
       <use xlink:href="#DejaVuSans-32"/>
       <use xlink:href="#DejaVuSans-30" x="63.623047"/>
       <use xlink:href="#DejaVuSans-30" x="127.246094"/>
      </g>
     </g>
    </g>
    <g id="text_7">
     <!-- time_adj -->
     <g transform="translate(214.736562 335.860562) scale(0.1 -0.1)">
      <defs>
       <path id="DejaVuSans-74" d="M 1172 4494 
L 1172 3500 
L 2356 3500 
L 2356 3053 
L 1172 3053 
L 1172 1153 
Q 1172 725 1289 603 
Q 1406 481 1766 481 
L 2356 481 
L 2356 0 
L 1766 0 
Q 1100 0 847 248 
Q 594 497 594 1153 
L 594 3053 
L 172 3053 
L 172 3500 
L 594 3500 
L 594 4494 
L 1172 4494 
z
" transform="scale(0.015625)"/>
       <path id="DejaVuSans-69" d="M 603 3500 
L 1178 3500 
L 1178 0 
L 603 0 
L 603 3500 
z
M 603 4863 
L 1178 4863 
L 1178 4134 
L 603 4134 
L 603 4863 
z
" transform="scale(0.015625)"/>
       <path id="DejaVuSans-6d" d="M 3328 2828 
Q 3544 3216 3844 3400 
Q 4144 3584 4550 3584 
Q 5097 3584 5394 3201 
Q 5691 2819 5691 2113 
L 5691 0 
L 5113 0 
L 5113 2094 
Q 5113 2597 4934 2840 
Q 4756 3084 4391 3084 
Q 3944 3084 3684 2787 
Q 3425 2491 3425 1978 
L 3425 0 
L 2847 0 
L 2847 2094 
Q 2847 2600 2669 2842 
Q 2491 3084 2119 3084 
Q 1678 3084 1418 2786 
Q 1159 2488 1159 1978 
L 1159 0 
L 581 0 
L 581 3500 
L 1159 3500 
L 1159 2956 
Q 1356 3278 1631 3431 
Q 1906 3584 2284 3584 
Q 2666 3584 2933 3390 
Q 3200 3197 3328 2828 
z
" transform="scale(0.015625)"/>
       <path id="DejaVuSans-65" d="M 3597 1894 
L 3597 1613 
L 953 1613 
Q 991 1019 1311 708 
Q 1631 397 2203 397 
Q 2534 397 2845 478 
Q 3156 559 3463 722 
L 3463 178 
Q 3153 47 2828 -22 
Q 2503 -91 2169 -91 
Q 1331 -91 842 396 
Q 353 884 353 1716 
Q 353 2575 817 3079 
Q 1281 3584 2069 3584 
Q 2775 3584 3186 3129 
Q 3597 2675 3597 1894 
z
M 3022 2063 
Q 3016 2534 2758 2815 
Q 2500 3097 2075 3097 
Q 1594 3097 1305 2825 
Q 1016 2553 972 2059 
L 3022 2063 
z
" transform="scale(0.015625)"/>
       <path id="DejaVuSans-5f" d="M 3263 -1063 
L 3263 -1509 
L -63 -1509 
L -63 -1063 
L 3263 -1063 
z
" transform="scale(0.015625)"/>
       <path id="DejaVuSans-61" d="M 2194 1759 
Q 1497 1759 1228 1600 
Q 959 1441 959 1056 
Q 959 750 1161 570 
Q 1363 391 1709 391 
Q 2188 391 2477 730 
Q 2766 1069 2766 1631 
L 2766 1759 
L 2194 1759 
z
M 3341 1997 
L 3341 0 
L 2766 0 
L 2766 531 
Q 2569 213 2275 61 
Q 1981 -91 1556 -91 
Q 1019 -91 701 211 
Q 384 513 384 1019 
Q 384 1609 779 1909 
Q 1175 2209 1959 2209 
L 2766 2209 
L 2766 2266 
Q 2766 2663 2505 2880 
Q 2244 3097 1772 3097 
Q 1472 3097 1187 3025 
Q 903 2953 641 2809 
L 641 3341 
Q 956 3463 1253 3523 
Q 1550 3584 1831 3584 
Q 2591 3584 2966 3190 
Q 3341 2797 3341 1997 
z
" transform="scale(0.015625)"/>
       <path id="DejaVuSans-64" d="M 2906 2969 
L 2906 4863 
L 3481 4863 
L 3481 0 
L 2906 0 
L 2906 525 
Q 2725 213 2448 61 
Q 2172 -91 1784 -91 
Q 1150 -91 751 415 
Q 353 922 353 1747 
Q 353 2572 751 3078 
Q 1150 3584 1784 3584 
Q 2172 3584 2448 3432 
Q 2725 3281 2906 2969 
z
M 947 1747 
Q 947 1113 1208 752 
Q 1469 391 1925 391 
Q 2381 391 2643 752 
Q 2906 1113 2906 1747 
Q 2906 2381 2643 2742 
Q 2381 3103 1925 3103 
Q 1469 3103 1208 2742 
Q 947 2381 947 1747 
z
" transform="scale(0.015625)"/>
       <path id="DejaVuSans-6a" d="M 603 3500 
L 1178 3500 
L 1178 -63 
Q 1178 -731 923 -1031 
Q 669 -1331 103 -1331 
L -116 -1331 
L -116 -844 
L 38 -844 
Q 366 -844 484 -692 
Q 603 -541 603 -63 
L 603 3500 
z
M 603 4863 
L 1178 4863 
L 1178 4134 
L 603 4134 
L 603 4863 
z
" transform="scale(0.015625)"/>
      </defs>
      <use xlink:href="#DejaVuSans-74"/>
      <use xlink:href="#DejaVuSans-69" x="39.208984"/>
      <use xlink:href="#DejaVuSans-6d" x="66.992188"/>
      <use xlink:href="#DejaVuSans-65" x="164.404297"/>
      <use xlink:href="#DejaVuSans-5f" x="225.927734"/>
      <use xlink:href="#DejaVuSans-61" x="275.927734"/>
      <use xlink:href="#DejaVuSans-64" x="337.207031"/>
      <use xlink:href="#DejaVuSans-6a" x="400.683594"/>
     </g>
    </g>
   </g>
   <g id="matplotlib.axis_2">
    <g id="ytick_1">
     <g id="line2d_7">
      <defs>
       <path id="ma3a3455534" d="M 0 0 
L -3.5 0 
" style="stroke: #000000; stroke-width: 0.8"/>
      </defs>
      <g>
       <use xlink:href="#ma3a3455534" x="57.6" y="300.714109" style="stroke: #000000; stroke-width: 0.8"/>
      </g>
     </g>
     <g id="text_8">
      <!-- −0.050 -->
      <g transform="translate(13.592188 304.513328) scale(0.1 -0.1)">
       <defs>
        <path id="DejaVuSans-2e" d="M 684 794 
L 1344 794 
L 1344 0 
L 684 0 
L 684 794 
z
" transform="scale(0.015625)"/>
       </defs>
       <use xlink:href="#DejaVuSans-2212"/>
       <use xlink:href="#DejaVuSans-30" x="83.789062"/>
       <use xlink:href="#DejaVuSans-2e" x="147.412109"/>
       <use xlink:href="#DejaVuSans-30" x="179.199219"/>
       <use xlink:href="#DejaVuSans-35" x="242.822266"/>
       <use xlink:href="#DejaVuSans-30" x="306.445312"/>
      </g>
     </g>
    </g>
    <g id="ytick_2">
     <g id="line2d_8">
      <g>
       <use xlink:href="#ma3a3455534" x="57.6" y="267.488222" style="stroke: #000000; stroke-width: 0.8"/>
      </g>
     </g>
     <g id="text_9">
      <!-- −0.025 -->
      <g transform="translate(13.592188 271.287441) scale(0.1 -0.1)">
       <use xlink:href="#DejaVuSans-2212"/>
       <use xlink:href="#DejaVuSans-30" x="83.789062"/>
       <use xlink:href="#DejaVuSans-2e" x="147.412109"/>
       <use xlink:href="#DejaVuSans-30" x="179.199219"/>
       <use xlink:href="#DejaVuSans-32" x="242.822266"/>
       <use xlink:href="#DejaVuSans-35" x="306.445312"/>
      </g>
     </g>
    </g>
    <g id="ytick_3">
     <g id="line2d_9">
      <g>
       <use xlink:href="#ma3a3455534" x="57.6" y="234.262334" style="stroke: #000000; stroke-width: 0.8"/>
      </g>
     </g>
     <g id="text_10">
      <!-- 0.000 -->
      <g transform="translate(21.971875 238.061553) scale(0.1 -0.1)">
       <use xlink:href="#DejaVuSans-30"/>
       <use xlink:href="#DejaVuSans-2e" x="63.623047"/>
       <use xlink:href="#DejaVuSans-30" x="95.410156"/>
       <use xlink:href="#DejaVuSans-30" x="159.033203"/>
       <use xlink:href="#DejaVuSans-30" x="222.65625"/>
      </g>
     </g>
    </g>
    <g id="ytick_4">
     <g id="line2d_10">
      <g>
       <use xlink:href="#ma3a3455534" x="57.6" y="201.036447" style="stroke: #000000; stroke-width: 0.8"/>
      </g>
     </g>
     <g id="text_11">
      <!-- 0.025 -->
      <g transform="translate(21.971875 204.835666) scale(0.1 -0.1)">
       <use xlink:href="#DejaVuSans-30"/>
       <use xlink:href="#DejaVuSans-2e" x="63.623047"/>
       <use xlink:href="#DejaVuSans-30" x="95.410156"/>
       <use xlink:href="#DejaVuSans-32" x="159.033203"/>
       <use xlink:href="#DejaVuSans-35" x="222.65625"/>
      </g>
     </g>
    </g>
    <g id="ytick_5">
     <g id="line2d_11">
      <g>
       <use xlink:href="#ma3a3455534" x="57.6" y="167.81056" style="stroke: #000000; stroke-width: 0.8"/>
      </g>
     </g>
     <g id="text_12">
      <!-- 0.050 -->
      <g transform="translate(21.971875 171.609778) scale(0.1 -0.1)">
       <use xlink:href="#DejaVuSans-30"/>
       <use xlink:href="#DejaVuSans-2e" x="63.623047"/>
       <use xlink:href="#DejaVuSans-30" x="95.410156"/>
       <use xlink:href="#DejaVuSans-35" x="159.033203"/>
       <use xlink:href="#DejaVuSans-30" x="222.65625"/>
      </g>
     </g>
    </g>
    <g id="ytick_6">
     <g id="line2d_12">
      <g>
       <use xlink:href="#ma3a3455534" x="57.6" y="134.584672" style="stroke: #000000; stroke-width: 0.8"/>
      </g>
     </g>
     <g id="text_13">
      <!-- 0.075 -->
      <g transform="translate(21.971875 138.383891) scale(0.1 -0.1)">
       <defs>
        <path id="DejaVuSans-37" d="M 525 4666 
L 3525 4666 
L 3525 4397 
L 1831 0 
L 1172 0 
L 2766 4134 
L 525 4134 
L 525 4666 
z
" transform="scale(0.015625)"/>
       </defs>
       <use xlink:href="#DejaVuSans-30"/>
       <use xlink:href="#DejaVuSans-2e" x="63.623047"/>
       <use xlink:href="#DejaVuSans-30" x="95.410156"/>
       <use xlink:href="#DejaVuSans-37" x="159.033203"/>
       <use xlink:href="#DejaVuSans-35" x="222.65625"/>
      </g>
     </g>
    </g>
    <g id="ytick_7">
     <g id="line2d_13">
      <g>
       <use xlink:href="#ma3a3455534" x="57.6" y="101.358785" style="stroke: #000000; stroke-width: 0.8"/>
      </g>
     </g>
     <g id="text_14">
      <!-- 0.100 -->
      <g transform="translate(21.971875 105.158004) scale(0.1 -0.1)">
       <use xlink:href="#DejaVuSans-30"/>
       <use xlink:href="#DejaVuSans-2e" x="63.623047"/>
       <use xlink:href="#DejaVuSans-31" x="95.410156"/>
       <use xlink:href="#DejaVuSans-30" x="159.033203"/>
       <use xlink:href="#DejaVuSans-30" x="222.65625"/>
      </g>
     </g>
    </g>
    <g id="ytick_8">
     <g id="line2d_14">
      <g>
       <use xlink:href="#ma3a3455534" x="57.6" y="68.132898" style="stroke: #000000; stroke-width: 0.8"/>
      </g>
     </g>
     <g id="text_15">
      <!-- 0.125 -->
      <g transform="translate(21.971875 71.932116) scale(0.1 -0.1)">
       <use xlink:href="#DejaVuSans-30"/>
       <use xlink:href="#DejaVuSans-2e" x="63.623047"/>
       <use xlink:href="#DejaVuSans-31" x="95.410156"/>
       <use xlink:href="#DejaVuSans-32" x="159.033203"/>
       <use xlink:href="#DejaVuSans-35" x="222.65625"/>
      </g>
     </g>
    </g>
    <g id="text_16">
     <!-- vtheta -->
     <g transform="translate(7.5125 190.717062) rotate(-90) scale(0.1 -0.1)">
      <defs>
       <path id="DejaVuSans-76" d="M 191 3500 
L 800 3500 
L 1894 563 
L 2988 3500 
L 3597 3500 
L 2284 0 
L 1503 0 
L 191 3500 
z
" transform="scale(0.015625)"/>
       <path id="DejaVuSans-68" d="M 3513 2113 
L 3513 0 
L 2938 0 
L 2938 2094 
Q 2938 2591 2744 2837 
Q 2550 3084 2163 3084 
Q 1697 3084 1428 2787 
Q 1159 2491 1159 1978 
L 1159 0 
L 581 0 
L 581 4863 
L 1159 4863 
L 1159 2956 
Q 1366 3272 1645 3428 
Q 1925 3584 2291 3584 
Q 2894 3584 3203 3211 
Q 3513 2838 3513 2113 
z
" transform="scale(0.015625)"/>
      </defs>
      <use xlink:href="#DejaVuSans-76"/>
      <use xlink:href="#DejaVuSans-74" x="59.179688"/>
      <use xlink:href="#DejaVuSans-68" x="98.388672"/>
      <use xlink:href="#DejaVuSans-65" x="161.767578"/>
      <use xlink:href="#DejaVuSans-74" x="223.291016"/>
      <use xlink:href="#DejaVuSans-61" x="262.5"/>
     </g>
    </g>
   </g>
   <g id="line2d_15">
    <path d="M -1 236.996484 
L 7.6032 239.50282 
L 21.888 233.209057 
L 36.1728 231.379079 
L 50.4576 238.382369 
L 64.7424 236.45543 
L 79.0272 232.25346 
L 93.312 233.25782 
L 107.5968 227.786174 
L 121.8816 222.996415 
L 136.1664 192.305699 
L 150.4512 173.7243 
L 164.736 198.384571 
L 179.0208 204.296157 
L 193.3056 236.673597 
L 207.5904 243.874542 
L 221.8752 259.898626 
L 236.16 238.192415 
L 250.4448 237.700721 
L 264.7296 226.184623 
L 279.0144 241.148923 
L 293.2992 236.645154 
L 307.584 228.365643 
L 321.8688 238.094871 
L 336.1536 233.383507 
L 350.4384 232.406535 
L 364.7232 237.54798 
L 379.008 233.001627 
L 393.2928 232.674781 
L 407.5776 235.231189 
L 421.8624 234.654626 
L 436.1472 234.709832 
L 450.432 234.115131 
L 461.8 234.880603 
" clip-path="url(#p9ddf13ed2f)" style="fill: none; stroke: #1f77b4; stroke-width: 1.5; stroke-linecap: square"/>
   </g>
   <g id="line2d_16">
    <path d="M -1 234.52716 
L 7.6032 238.545681 
L 21.888 234.431054 
L 36.1728 232.152895 
L 50.4576 241.73729 
L 64.7424 236.839411 
L 79.0272 227.480119 
L 93.312 229.670166 
L 107.5968 233.433438 
L 121.8816 232.95749 
L 136.1664 238.811873 
L 150.4512 268.199188 
L 164.736 251.972708 
L 179.0208 255.26647 
L 193.3056 220.380231 
L 207.5904 207.823808 
L 221.8752 223.879861 
L 236.16 231.680837 
L 250.4448 225.73811 
L 264.7296 248.028644 
L 279.0144 240.188718 
L 293.2992 228.842259 
L 307.584 237.542383 
L 321.8688 237.546077 
L 336.1536 234.221459 
L 350.4384 233.197448 
L 364.7232 237.313612 
L 379.008 232.902309 
L 393.2928 234.49549 
L 407.5776 232.805251 
L 421.8624 235.930938 
L 436.1472 232.985343 
L 450.432 234.010673 
L 461.8 233.13865 
" clip-path="url(#p9ddf13ed2f)" style="fill: none; stroke: #ff7f0e; stroke-width: 1.5; stroke-linecap: square"/>
   </g>
   <g id="line2d_17"/>
   <g id="line2d_18"/>
   <g id="patch_3">
    <path d="M 57.6 307.584 
L 57.6 41.472 
" style="fill: none; stroke: #000000; stroke-width: 0.8; stroke-linejoin: miter; stroke-linecap: square"/>
   </g>
   <g id="patch_4">
    <path d="M 414.72 307.584 
L 414.72 41.472 
" style="fill: none; stroke: #000000; stroke-width: 0.8; stroke-linejoin: miter; stroke-linecap: square"/>
   </g>
   <g id="patch_5">
    <path d="M 57.6 307.584 
L 414.72 307.584 
" style="fill: none; stroke: #000000; stroke-width: 0.8; stroke-linejoin: miter; stroke-linecap: square"/>
   </g>
   <g id="patch_6">
    <path d="M 57.6 41.472 
L 414.72 41.472 
" style="fill: none; stroke: #000000; stroke-width: 0.8; stroke-linejoin: miter; stroke-linecap: square"/>
   </g>
   <g id="legend_1">
    <g id="patch_7">
     <path d="M 356.174688 93.506375 
L 407.72 93.506375 
Q 409.72 93.506375 409.72 91.506375 
L 409.72 48.472 
Q 409.72 46.472 407.72 46.472 
L 356.174688 46.472 
Q 354.174688 46.472 354.174688 48.472 
L 354.174688 91.506375 
Q 354.174688 93.506375 356.174688 93.506375 
z
" style="fill: #ffffff; opacity: 0.8; stroke: #cccccc; stroke-linejoin: miter"/>
    </g>
    <g id="text_17">
     <!-- condition -->
     <g transform="translate(358.829375 58.070438) scale(0.1 -0.1)">
      <defs>
       <path id="DejaVuSans-63" d="M 3122 3366 
L 3122 2828 
Q 2878 2963 2633 3030 
Q 2388 3097 2138 3097 
Q 1578 3097 1268 2742 
Q 959 2388 959 1747 
Q 959 1106 1268 751 
Q 1578 397 2138 397 
Q 2388 397 2633 464 
Q 2878 531 3122 666 
L 3122 134 
Q 2881 22 2623 -34 
Q 2366 -91 2075 -91 
Q 1284 -91 818 406 
Q 353 903 353 1747 
Q 353 2603 823 3093 
Q 1294 3584 2113 3584 
Q 2378 3584 2631 3529 
Q 2884 3475 3122 3366 
z
" transform="scale(0.015625)"/>
       <path id="DejaVuSans-6f" d="M 1959 3097 
Q 1497 3097 1228 2736 
Q 959 2375 959 1747 
Q 959 1119 1226 758 
Q 1494 397 1959 397 
Q 2419 397 2687 759 
Q 2956 1122 2956 1747 
Q 2956 2369 2687 2733 
Q 2419 3097 1959 3097 
z
M 1959 3584 
Q 2709 3584 3137 3096 
Q 3566 2609 3566 1747 
Q 3566 888 3137 398 
Q 2709 -91 1959 -91 
Q 1206 -91 779 398 
Q 353 888 353 1747 
Q 353 2609 779 3096 
Q 1206 3584 1959 3584 
z
" transform="scale(0.015625)"/>
       <path id="DejaVuSans-6e" d="M 3513 2113 
L 3513 0 
L 2938 0 
L 2938 2094 
Q 2938 2591 2744 2837 
Q 2550 3084 2163 3084 
Q 1697 3084 1428 2787 
Q 1159 2491 1159 1978 
L 1159 0 
L 581 0 
L 581 3500 
L 1159 3500 
L 1159 2956 
Q 1366 3272 1645 3428 
Q 1925 3584 2291 3584 
Q 2894 3584 3203 3211 
Q 3513 2838 3513 2113 
z
" transform="scale(0.015625)"/>
      </defs>
      <use xlink:href="#DejaVuSans-63"/>
      <use xlink:href="#DejaVuSans-6f" x="54.980469"/>
      <use xlink:href="#DejaVuSans-6e" x="116.162109"/>
      <use xlink:href="#DejaVuSans-64" x="179.541016"/>
      <use xlink:href="#DejaVuSans-69" x="243.017578"/>
      <use xlink:href="#DejaVuSans-74" x="270.800781"/>
      <use xlink:href="#DejaVuSans-69" x="310.009766"/>
      <use xlink:href="#DejaVuSans-6f" x="337.792969"/>
      <use xlink:href="#DejaVuSans-6e" x="398.974609"/>
     </g>
    </g>
    <g id="line2d_19">
     <path d="M 358.174688 69.248563 
L 368.174688 69.248563 
L 378.174688 69.248563 
" style="fill: none; stroke: #1f77b4; stroke-width: 1.5; stroke-linecap: square"/>
    </g>
    <g id="text_18">
     <!-- sibs -->
     <g transform="translate(386.174688 72.748563) scale(0.1 -0.1)">
      <defs>
       <path id="DejaVuSans-73" d="M 2834 3397 
L 2834 2853 
Q 2591 2978 2328 3040 
Q 2066 3103 1784 3103 
Q 1356 3103 1142 2972 
Q 928 2841 928 2578 
Q 928 2378 1081 2264 
Q 1234 2150 1697 2047 
L 1894 2003 
Q 2506 1872 2764 1633 
Q 3022 1394 3022 966 
Q 3022 478 2636 193 
Q 2250 -91 1575 -91 
Q 1294 -91 989 -36 
Q 684 19 347 128 
L 347 722 
Q 666 556 975 473 
Q 1284 391 1588 391 
Q 1994 391 2212 530 
Q 2431 669 2431 922 
Q 2431 1156 2273 1281 
Q 2116 1406 1581 1522 
L 1381 1569 
Q 847 1681 609 1914 
Q 372 2147 372 2553 
Q 372 3047 722 3315 
Q 1072 3584 1716 3584 
Q 2034 3584 2315 3537 
Q 2597 3491 2834 3397 
z
" transform="scale(0.015625)"/>
       <path id="DejaVuSans-62" d="M 3116 1747 
Q 3116 2381 2855 2742 
Q 2594 3103 2138 3103 
Q 1681 3103 1420 2742 
Q 1159 2381 1159 1747 
Q 1159 1113 1420 752 
Q 1681 391 2138 391 
Q 2594 391 2855 752 
Q 3116 1113 3116 1747 
z
M 1159 2969 
Q 1341 3281 1617 3432 
Q 1894 3584 2278 3584 
Q 2916 3584 3314 3078 
Q 3713 2572 3713 1747 
Q 3713 922 3314 415 
Q 2916 -91 2278 -91 
Q 1894 -91 1617 61 
Q 1341 213 1159 525 
L 1159 0 
L 581 0 
L 581 4863 
L 1159 4863 
L 1159 2969 
z
" transform="scale(0.015625)"/>
      </defs>
      <use xlink:href="#DejaVuSans-73"/>
      <use xlink:href="#DejaVuSans-69" x="52.099609"/>
      <use xlink:href="#DejaVuSans-62" x="79.882812"/>
      <use xlink:href="#DejaVuSans-73" x="143.359375"/>
     </g>
    </g>
    <g id="line2d_20">
     <path d="M 358.174688 83.926688 
L 368.174688 83.926688 
L 378.174688 83.926688 
" style="fill: none; stroke: #ff7f0e; stroke-width: 1.5; stroke-linecap: square"/>
    </g>
    <g id="text_19">
     <!-- tau -->
     <g transform="translate(386.174688 87.426688) scale(0.1 -0.1)">
      <defs>
       <path id="DejaVuSans-75" d="M 544 1381 
L 544 3500 
L 1119 3500 
L 1119 1403 
Q 1119 906 1312 657 
Q 1506 409 1894 409 
Q 2359 409 2629 706 
Q 2900 1003 2900 1516 
L 2900 3500 
L 3475 3500 
L 3475 0 
L 2900 0 
L 2900 538 
Q 2691 219 2414 64 
Q 2138 -91 1772 -91 
Q 1169 -91 856 284 
Q 544 659 544 1381 
z
M 1991 3584 
L 1991 3584 
z
" transform="scale(0.015625)"/>
      </defs>
      <use xlink:href="#DejaVuSans-74"/>
      <use xlink:href="#DejaVuSans-61" x="39.208984"/>
      <use xlink:href="#DejaVuSans-75" x="100.488281"/>
     </g>
    </g>
   </g>
  </g>
 </g>
 <defs>
  <clipPath id="p9ddf13ed2f">
   <rect x="57.6" y="41.472" width="357.12" height="266.112"/>
  </clipPath>
 </defs>
</svg>
